<svg width="212" height="212" viewBox="0 0 212 212" xmlns="http://www.w3.org/2000/svg" xmlns:xlink="http://www.w3.org/1999/xlink"><defs><path d="M29.536 0h87.052c16.312 0 29.536 13.224 29.536 29.536V114H0V29.536C0 13.224 13.224 0 29.536 0" id="a"/><path d="M8.226 0a8.226 8.226 0 0 1 8.227 8.226V18.56A8.226 8.226 0 1 1 0 18.56V8.226A8.226 8.226 0 0 1 8.226 0" id="c"/></defs><g fill="none" fill-rule="evenodd"><g transform="translate(77.272 123.07)"/><g transform="translate(16 4)"><path d="M89.61 25.65c12.664 0 22.926 10.292 22.926 22.979v3.447H66.678v-3.447c0-12.687 10.268-22.98 22.932-22.98" fill="#FF9600"/><path d="M65.126 48.19c13.519 0 24.48-10.789 24.48-24.095C89.607 10.788 78.646 0 65.127 0 51.601 0 40.64 10.788 40.64 24.095S51.6 48.19 65.126 48.19" fill="#FF9600" fill-rule="nonzero"/><g transform="translate(17.71 47.801)"><mask id="b" fill="#fff"><use xlink:href="#a"/></mask><use fill="#FFC6B7" xlink:href="#a"/><rect fill="#FF9600" opacity=".332" mask="url(#b)" x="-94.048" y="-39.251" width="114.256" height="90.939" rx="17.488"/><rect fill="#FF9600" opacity=".332" mask="url(#b)" x="129.413" y="-39.251" width="114.256" height="90.939" rx="17.488"/></g><circle fill="#FFC6B7" cx="167.526" cy="105.124" r="13.019"/><circle fill="#FFC6B7" cx="13.241" cy="105.124" r="13.019"/><path d="M69.068 62.569c10.12 0 18.323 8.204 18.323 18.324v11.146c0 10.12-8.203 18.323-18.323 18.323s-18.324-8.203-18.324-18.323V80.893c0-10.12 8.204-18.324 18.324-18.324" fill="#FFF"/><path d="M74.127 73.451a8.226 8.226 0 0 1 8.226 8.226v10.332a8.227 8.227 0 0 1-16.453 0V81.677a8.226 8.226 0 0 1 8.227-8.226" fill="#3D3D3D"/><path d="M112.204 62.569c-10.12 0-18.323 8.204-18.323 18.324v11.146c0 10.12 8.203 18.323 18.323 18.323s18.324-8.203 18.324-18.323V80.893c0-10.12-8.204-18.324-18.324-18.324" fill="#FFF"/><use fill="#3D3D3D" xlink:href="#c" transform="matrix(-1 0 0 1 116.538 73.451)"/><path d="M40.25 104.931q29.091-.151 50.522 13.989" stroke="#FFC6B7" stroke-width="8.161"/><path d="M92.027 126.898q-10.728 3.208-16.544-6.378" stroke="#EE9583" stroke-width="3.886" stroke-linecap="round" stroke-linejoin="round"/><circle fill="#FFF" transform="matrix(-1 0 0 1 132.578 0)" cx="66.289" cy="75.782" r="6.607"/><path d="M90.19 118.143c3.97 0 7.19-3.226 7.19-7.206s-7.19-13.392-7.19-13.392S83 106.957 83 110.937s3.219 7.206 7.19 7.206" fill="#EE9583"/></g><rect fill="#2FE3FF" x="34" y="162" width="146" height="46" rx="6"/><path d="M30.99 157.896h150.788c8.156 0 14.767 6.612 14.767 14.768v1.166c0 8.156-6.611 14.768-14.767 14.768H30.99c-8.156 0-14.768-6.612-14.768-14.768v-1.166c0-8.156 6.612-14.768 14.768-14.768" fill="#2FE3FF"/><rect fill="#FFF" x="90.062" y="169.555" width="8.161" height="31.867" rx="4.081"/><rect fill="#FFF" x="114.934" y="169.555" width="8.161" height="31.867" rx="4.081"/><path d="M111.816 84.454a6.607 6.607 0 1 0 4.672-11.278q-5.867 10.081-4.672 11.278" fill="#FFF"/></g></svg>