<svg width="212" height="212" viewBox="0 0 212 212" xmlns="http://www.w3.org/2000/svg" xmlns:xlink="http://www.w3.org/1999/xlink"><defs><path d="M106.026 16c37.413 0 71.578 21.253 88.116 54.813l6.915 14.035c7.09 14.387 1.174 31.796-13.213 38.885a29.04 29.04 0 0 1-12.836 2.991H37.043c-16.038 0-29.04-13.002-29.04-29.04a29.04 29.04 0 0 1 2.991-12.836l6.916-14.035C34.447 37.253 68.612 16 106.026 16" id="a"/></defs><g transform="translate(1 48)" fill="none" fill-rule="evenodd"><g opacity=".775" transform="translate(104.328 52.612)"/><g fill="#CE82FF"><path d="M165.623.972 71.542 60.876l103.11 2.744V5.927a5.874 5.874 0 0 0-9.028-4.955"/><path d="m49.862.972 94.081 59.904-103.11 2.744V5.927A5.874 5.874 0 0 1 49.861.972"/></g><g transform="translate(11.478 6.481)"/><mask id="b" fill="#fff"><use xlink:href="#a"/></mask><use fill="#CE82FF" xlink:href="#a"/><rect fill="#B667E8" mask="url(#b)" x="-16.881" y="89.379" width="55.995" height="17.655" rx="8.828"/><path d="M2.946 64h38.34a8.828 8.828 0 0 1 0 17.655H2.946a8.828 8.828 0 0 1 0-17.655" fill="#B667E8" mask="url(#b)"/><rect fill="#B667E8" mask="url(#b)" x="172.985" y="89.379" width="55.995" height="17.655" rx="8.828"/><rect fill="#B667E8" mask="url(#b)" x="161.985" y="64" width="55.995" height="17.655" rx="8.828"/><path d="M117.908 41.448a7.777 7.777 0 0 1 7.777 7.777v12.699a7.777 7.777 0 0 1-15.554 0v-12.7a7.777 7.777 0 0 1 7.777-7.776m-22.784 0a7.777 7.777 0 0 1 7.777 7.777v12.699a7.777 7.777 0 0 1-15.554 0v-12.7a7.777 7.777 0 0 1 7.777-7.776" fill="#9046C1" mask="url(#b)"/><path d="M89.367 72h33.988c11.8 0 21.367 9.566 21.367 21.367v.32c0 11.8-9.566 21.366-21.367 21.366H89.367c-11.8 0-21.367-9.566-21.367-21.367v-.32C68 81.567 77.566 72 89.367 72" fill="#FFF" mask="url(#b)"/><path d="m110.908 73.936 4.272 4.792a5.816 5.816 0 0 1-4.34 9.686h-8.698a5.804 5.804 0 0 1-4.314-9.686l4.328-4.811a5.874 5.874 0 0 1 8.752.02" fill="#FFAADE" opacity=".721" mask="url(#b)" transform="matrix(1 0 0 -1 0 160.386)"/></g></svg>