<svg fill="none" height="32" viewBox="0 0 32 32" width="32" xmlns="http://www.w3.org/2000/svg" xmlns:xlink="http://www.w3.org/1999/xlink"><filter id="f" color-interpolation-filters="sRGB" filterUnits="userSpaceOnUse" height="12.94" width="13.115" x="16.728" y="9.011"><feFlood flood-opacity="0" result="BackgroundImageFix"/><feBlend in="SourceGraphic" in2="BackgroundImageFix" result="shape"/><feColorMatrix in="SourceAlpha" result="hardAlpha" values="0 0 0 0 0 0 0 0 0 0 0 0 0 0 0 0 0 0 127 0"/><feOffset dx="-.25"/><feGaussianBlur stdDeviation=".375"/><feComposite in2="hardAlpha" k2="-1" k3="1" operator="arithmetic"/><feColorMatrix values="0 0 0 0 0.945098 0 0 0 0 0.698039 0 0 0 0 0.380392 0 0 0 1 0"/><feBlend in2="shape" result="effect1_innerShadow_18_599"/></filter><filter id="i" color-interpolation-filters="sRGB" filterUnits="userSpaceOnUse" height="10.64" width="10.64" x="16.865" y="11.521"><feFlood flood-opacity="0" result="BackgroundImageFix"/><feBlend in="SourceGraphic" in2="BackgroundImageFix" result="shape"/><feGaussianBlur result="effect1_foregroundBlur_18_599" stdDeviation=".1"/></filter><filter id="B" color-interpolation-filters="sRGB" filterUnits="userSpaceOnUse" height="10.24" width="10.24" x="4.567" y="11.722"><feFlood flood-opacity="0" result="BackgroundImageFix"/><feBlend in="SourceGraphic" in2="BackgroundImageFix" result="shape"/><feGaussianBlur result="effect1_foregroundBlur_18_599" stdDeviation=".05"/></filter><filter id="E" color-interpolation-filters="sRGB" filterUnits="userSpaceOnUse" height="12.758" width="5.279" x="3.937" y="15.255"><feFlood flood-opacity="0" result="BackgroundImageFix"/><feBlend in="SourceGraphic" in2="BackgroundImageFix" result="shape"/><feColorMatrix in="SourceAlpha" result="hardAlpha" values="0 0 0 0 0 0 0 0 0 0 0 0 0 0 0 0 0 0 127 0"/><feOffset dx=".15"/><feGaussianBlur stdDeviation=".25"/><feComposite in2="hardAlpha" k2="-1" k3="1" operator="arithmetic"/><feColorMatrix values="0 0 0 0 0.054902 0 0 0 0 0.462745 0 0 0 0 0.701961 0 0 0 1 0"/><feBlend in2="shape" result="effect1_innerShadow_18_599"/></filter><filter id="M" color-interpolation-filters="sRGB" filterUnits="userSpaceOnUse" height="4.825" width="2.506" x="13.871" y="19.871"><feFlood flood-opacity="0" result="BackgroundImageFix"/><feBlend in="SourceGraphic" in2="BackgroundImageFix" result="shape"/><feGaussianBlur result="effect1_foregroundBlur_18_599" stdDeviation=".3"/></filter><filter id="N" color-interpolation-filters="sRGB" filterUnits="userSpaceOnUse" height="11.162" width="4.114" x="23.363" y="16.671"><feFlood flood-opacity="0" result="BackgroundImageFix"/><feBlend in="SourceGraphic" in2="BackgroundImageFix" result="shape"/><feColorMatrix in="SourceAlpha" result="hardAlpha" values="0 0 0 0 0 0 0 0 0 0 0 0 0 0 0 0 0 0 127 0"/><feOffset dx=".3" dy=".3"/><feGaussianBlur stdDeviation=".425"/><feComposite in2="hardAlpha" k2="-1" k3="1" operator="arithmetic"/><feColorMatrix values="0 0 0 0 0.0705882 0 0 0 0 0.329412 0 0 0 0 0.6 0 0 0 1 0"/><feBlend in2="shape" result="effect1_innerShadow_18_599"/></filter><filter id="Q" color-interpolation-filters="sRGB" filterUnits="userSpaceOnUse" height="8.806" width="3.636" x="23.798" y="18.563"><feFlood flood-opacity="0" result="BackgroundImageFix"/><feBlend in="SourceGraphic" in2="BackgroundImageFix" result="shape"/><feGaussianBlur result="effect1_foregroundBlur_18_599" stdDeviation=".325"/></filter><filter id="W" color-interpolation-filters="sRGB" filterUnits="userSpaceOnUse" height="4.422" width="4.169" x="16.014" y="16.092"><feFlood flood-opacity="0" result="BackgroundImageFix"/><feBlend in="SourceGraphic" in2="BackgroundImageFix" result="shape"/><feGaussianBlur result="effect1_foregroundBlur_18_599" stdDeviation=".375"/></filter><filter id="Y" color-interpolation-filters="sRGB" filterUnits="userSpaceOnUse" height="5.813" width="4.969" x="18.906" y="14.451"><feFlood flood-opacity="0" result="BackgroundImageFix"/><feBlend in="SourceGraphic" in2="BackgroundImageFix" result="shape"/><feGaussianBlur result="effect1_foregroundBlur_18_599" stdDeviation=".375"/></filter><radialGradient id="c" cx="0" cy="0" gradientTransform="matrix(-4.875 -5.3125 3.85554 -3.53803 12.5 13.357)" gradientUnits="userSpaceOnUse" r="1"><stop offset="0" stop-color="#ffe94c"/><stop offset="1" stop-color="#ffe94c" stop-opacity="0"/></radialGradient><radialGradient id="d" cx="0" cy="0" gradientTransform="matrix(6.49999 11.78331 -11.89495 6.56157 5.687 9.011)" gradientUnits="userSpaceOnUse" r="1"><stop offset=".684" stop-color="#b9706d" stop-opacity="0"/><stop offset="1" stop-color="#b9706d"/></radialGradient><radialGradient id="e" cx="0" cy="0" gradientTransform="matrix(-9.16262 .50008 -.50085 -9.17683 11.062 15.857)" gradientUnits="userSpaceOnUse" r="1"><stop offset=".839" stop-color="#f3c893" stop-opacity="0"/><stop offset="1" stop-color="#f3c893"/></radialGradient><radialGradient id="g" cx="0" cy="0" gradientTransform="matrix(5.02786 -5.54799 4.62598 4.1923 25.324 16.543)" gradientUnits="userSpaceOnUse" r="1"><stop offset="0" stop-color="#ffe76d"/><stop offset="1" stop-color="#ffe76d" stop-opacity="0"/></radialGradient><radialGradient id="h" cx="0" cy="0" gradientTransform="matrix(2.6812 1.41306 -1.41525 2.68536 17.642 11.105)" gradientUnits="userSpaceOnUse" r="1"><stop offset="0" stop-color="#d6be6f"/><stop offset="1" stop-color="#d6be6f" stop-opacity="0"/></radialGradient><linearGradient id="j" gradientUnits="userSpaceOnUse" x1="-.892" x2="5.764" y1="5.106" y2="6.111"><stop offset="0" stop-color="#ecb43e"/><stop offset="1" stop-color="#925960"/></linearGradient><linearGradient id="k" gradientUnits="userSpaceOnUse" x1=".183" x2="2.519" y1="2.048" y2="12.816"><stop offset="0" stop-color="#572943"/><stop offset="1" stop-color="#4d2c30"/></linearGradient><linearGradient id="l" gradientUnits="userSpaceOnUse" x1="11.812" x2="13.187" y1="21.982" y2="27.17"><stop offset="0" stop-color="#c9136c"/><stop offset="1" stop-color="#c9136c" stop-opacity="0"/></linearGradient><linearGradient id="m" gradientUnits="userSpaceOnUse" x1="21.999" x2="16.999" y1="15.92" y2="21.757"><stop offset=".253" stop-color="#1da2cd"/><stop offset="1" stop-color="#255eb1"/></linearGradient><linearGradient id="n" gradientUnits="userSpaceOnUse" x1="23.624" x2="22.593" y1="15.138" y2="16.013"><stop offset="0" stop-color="#0d8cba"/><stop offset="1" stop-color="#0d8cba" stop-opacity="0"/></linearGradient><radialGradient id="o" cx="0" cy="0" gradientTransform="matrix(-2.78122 4.87501 -3.15863 -1.80202 20.25 15.482)" gradientUnits="userSpaceOnUse" r="1"><stop offset=".835" stop-color="#3165cf" stop-opacity="0"/><stop offset="1" stop-color="#3165cf"/></radialGradient><radialGradient id="p" cx="0" cy="0" gradientTransform="matrix(-6.27433 -1.29741 1.26939 -6.13881 21.792 18.662)" gradientUnits="userSpaceOnUse" r="1"><stop offset=".808" stop-color="#2471ad" stop-opacity="0"/><stop offset=".95" stop-color="#2471ad"/></radialGradient><radialGradient id="q" cx="0" cy="0" gradientTransform="matrix(-1 1.15626 -1.15626 -1 16.5 28.7)" gradientUnits="userSpaceOnUse" r="1"><stop offset="0" stop-color="#43c7f4"/><stop offset="1" stop-color="#2d64cf"/></radialGradient><radialGradient id="r" cx="0" cy="0" gradientTransform="rotate(140.042 5.167 15.798)scale(1.28272)" gradientUnits="userSpaceOnUse" r="1"><stop offset="0" stop-color="#ff48a3"/><stop offset="1" stop-color="#db1d93"/></radialGradient><radialGradient id="s" cx="0" cy="0" gradientTransform="rotate(144.498 7.284 17.589)scale(1.43947)" gradientUnits="userSpaceOnUse" r="1"><stop offset="0" stop-color="#f7c851"/><stop offset="1" stop-color="#d97654"/></radialGradient><radialGradient id="y" cx="0" cy="0" gradientTransform="rotate(-96.843 15.476 5.256)scale(1.18028)" gradientUnits="userSpaceOnUse" r="1"><stop offset="0" stop-color="#d48d3b"/><stop offset="1" stop-color="#b46518"/></radialGradient><radialGradient id="z" cx="0" cy="0" gradientTransform="rotate(138.621 -.427 15.147)scale(.87458)" gradientUnits="userSpaceOnUse" r="1"><stop offset="0" stop-color="#f8ac4b"/><stop offset="1" stop-color="#e5a437"/></radialGradient><radialGradient id="A" cx="0" cy="0" gradientTransform="rotate(-25.755 63.467 -5.608)scale(.98886)" gradientUnits="userSpaceOnUse" r="1"><stop offset=".757" stop-color="#eb9530" stop-opacity="0"/><stop offset="1" stop-color="#eb9530"/></radialGradient><linearGradient id="C" gradientUnits="userSpaceOnUse" x1="6.276" x2="12.932" y1="15.539" y2="16.544"><stop offset="0" stop-color="#eabe3f"/><stop offset="1" stop-color="#976061"/></linearGradient><linearGradient id="D" gradientUnits="userSpaceOnUse" x1="9.687" x2="9.687" y1="10.433" y2="23.25"><stop offset="0" stop-color="#5e2b40"/><stop offset="1" stop-color="#6e4546"/></linearGradient><linearGradient id="F" gradientUnits="userSpaceOnUse" x1="4.238" x2="6.042" y1="28.274" y2="26.613"><stop offset="0" stop-color="#3067d9"/><stop offset="1" stop-color="#3067d9" stop-opacity="0"/></linearGradient><radialGradient id="G" cx="0" cy="0" gradientTransform="matrix(5.27332 -.54085 1.15713 11.28202 4.22 19.985)" gradientUnits="userSpaceOnUse" r="1"><stop offset=".655" stop-color="#47cefa" stop-opacity="0"/><stop offset="1" stop-color="#47cefa"/></radialGradient><radialGradient id="H" cx="0" cy="0" gradientTransform="matrix(1.44789 .42725 -.90542 3.06837 5.971 17.166)" gradientUnits="userSpaceOnUse" r="1"><stop offset="0" stop-color="#1569a5"/><stop offset="1" stop-color="#1569a5" stop-opacity="0"/></radialGradient><linearGradient id="a"><stop offset="0" stop-color="#a80963"/><stop offset="1" stop-color="#a80963" stop-opacity="0"/></linearGradient><radialGradient id="J" cx="0" cy="0" gradientTransform="matrix(2.94773 6.02809 -1.51918 .74288 7.898 14.607)" gradientUnits="userSpaceOnUse" r="1" xlink:href="#a"/><radialGradient id="K" cx="0" cy="0" gradientTransform="matrix(-.3091 6.36157 -2.65138 -.12883 16.084 17.301)" gradientUnits="userSpaceOnUse" r="1"><stop offset=".198" stop-color="#a80963"/><stop offset="1" stop-color="#a80963" stop-opacity="0"/></radialGradient><radialGradient id="L" cx="0" cy="0" gradientTransform="matrix(.39856 -3.73194 1.61572 .17255 12.388 22.446)" gradientUnits="userSpaceOnUse" r="1" xlink:href="#a"/><linearGradient id="O" gradientUnits="userSpaceOnUse" x1="26.687" x2="25.27" y1="17.17" y2="19.232"><stop offset="0" stop-color="#184e8c"/><stop offset="1" stop-color="#184e8c" stop-opacity="0"/></linearGradient><radialGradient id="P" cx="0" cy="0" gradientTransform="matrix(-1.48988 .40624 -1.33533 -4.89726 27.177 24.826)" gradientUnits="userSpaceOnUse" r="1"><stop offset="0" stop-color="#4bdcff"/><stop offset="1" stop-color="#4bdcff" stop-opacity="0"/></radialGradient><linearGradient id="R" gradientUnits="userSpaceOnUse" x1="26.484" x2="25.616" y1="26.42" y2="19.513"><stop offset="0" stop-color="#4bdaff"/><stop offset="1" stop-color="#4bdaff" stop-opacity="0"/></linearGradient><radialGradient id="T" cx="0" cy="0" gradientTransform="matrix(.25 1.01562 -3.33143 .82005 18.921 19.888)" gradientUnits="userSpaceOnUse" r="1"><stop offset=".306" stop-color="#1e58a8"/><stop offset="1" stop-color="#1e58a8" stop-opacity="0"/></radialGradient><radialGradient id="U" cx="0" cy="0" gradientTransform="matrix(-2.35316 .71876 -1.01125 -3.31076 20.14 20.326)" gradientUnits="userSpaceOnUse" r="1"><stop offset=".59" stop-color="#1e58a8" stop-opacity="0"/><stop offset="1" stop-color="#1e58a8"/></radialGradient><radialGradient id="V" cx="0" cy="0" gradientTransform="matrix(-.07031 -1.53125 1.25877 -.0578 19.015 18.787)" gradientUnits="userSpaceOnUse" r="1"><stop offset=".187" stop-color="#3258a2"/><stop offset="1" stop-color="#3258a2" stop-opacity="0"/></radialGradient><linearGradient id="b"><stop offset="0" stop-color="#46b4e2"/><stop offset="1" stop-color="#46b4e2" stop-opacity="0"/></linearGradient><linearGradient id="X" gradientUnits="userSpaceOnUse" x1="17.843" x2="18.037" xlink:href="#b" y1="16.782" y2="19.513"/><linearGradient id="Z" gradientUnits="userSpaceOnUse" x1="22.687" x2="20.347" xlink:href="#b" y1="15.451" y2="19.89"/><path d="m14.617 12.367.002-.002-.014-.023a1.2 1.2 0 0 0-.145-.233A6.836 6.836 0 0 0 1.9 15.847c0 2.429 1.288 4.55 3.197 5.763 1.208.81 4.034-.43 6.512-2.91 2.363-2.362 3.6-5.042 3.008-6.333" fill="#f6bf3f"/><path d="m14.617 12.367.002-.002-.014-.023a1.2 1.2 0 0 0-.145-.233A6.836 6.836 0 0 0 1.9 15.847c0 2.429 1.288 4.55 3.197 5.763 1.208.81 4.034-.43 6.512-2.91 2.363-2.362 3.6-5.042 3.008-6.333" fill="url(#c)"/><path d="m14.617 12.367.002-.002-.014-.023a1.2 1.2 0 0 0-.145-.233A6.836 6.836 0 0 0 1.9 15.847c0 2.429 1.288 4.55 3.197 5.763 1.208.81 4.034-.43 6.512-2.91 2.363-2.362 3.6-5.042 3.008-6.333" fill="url(#d)"/><path d="m14.617 12.367.002-.002-.014-.023a1.2 1.2 0 0 0-.145-.233A6.836 6.836 0 0 0 1.9 15.847c0 2.429 1.288 4.55 3.197 5.763 1.208.81 4.034-.43 6.512-2.91 2.363-2.362 3.6-5.042 3.008-6.333" fill="url(#e)"/><g filter="url(#f)"><path d="m17.126 12.367-.002-.002.013-.023q.061-.126.146-.233a6.836 6.836 0 0 1 12.56 3.738c0 2.429-1.248 4.657-3.156 5.87-1.208.809-4.084-.538-6.563-3.016-2.363-2.363-3.59-5.043-2.999-6.334" fill="#f7cc36"/><path d="m17.126 12.367-.002-.002.013-.023q.061-.126.146-.233a6.836 6.836 0 0 1 12.56 3.738c0 2.429-1.248 4.657-3.156 5.87-1.208.809-4.084-.538-6.563-3.016-2.363-2.363-3.59-5.043-2.999-6.334" fill="url(#g)"/><path d="m17.126 12.367-.002-.002.013-.023q.061-.126.146-.233a6.836 6.836 0 0 1 12.56 3.738c0 2.429-1.248 4.657-3.156 5.87-1.208.809-4.084-.538-6.563-3.016-2.363-2.363-3.59-5.043-2.999-6.334" fill="url(#h)"/></g><g filter="url(#i)"><ellipse rx="2.519" ry="6.408" stroke="url(#j)" stroke-width=".5" transform="scale(-1 1)rotate(45 -31.422 -18.36)"/></g><ellipse fill="url(#k)" rx="2.519" ry="6.408" transform="scale(-1 1)rotate(45 -31.422 -18.36)"/><g clip-rule="evenodd" fill-rule="evenodd"><path d="M10.885 22.864a1 1 0 0 1 1.296.566c.432 1.105 1.206 3.882-.793 6.367a1 1 0 0 1-1.558-1.254c1.3-1.616.847-3.467.488-4.383a1 1 0 0 1 .567-1.296" fill="#fc28a2"/><path d="M10.885 22.864a1 1 0 0 1 1.296.566c.432 1.105 1.206 3.882-.793 6.367a1 1 0 0 1-1.558-1.254c1.3-1.616.847-3.467.488-4.383a1 1 0 0 1 .567-1.296" fill="url(#l)"/><path d="M22.854 14.546a.9.9 0 0 1 .472 1.182c-.796 1.856-1.975 3.231-3.166 3.995l-.045.172c-.173.61-.45 1.178-.723 1.521a.9.9 0 0 1-1.481-1.014 2 2 0 0 1-.268-.039c-.762-.156-1.325-.69-1.554-1.472-.19-.647-.13-1.277.191-1.793.31-.501.806-.796 1.304-.91.906-.205 2.054.163 2.508 1.267.57-.588 1.135-1.4 1.58-2.437a.9.9 0 0 1 1.182-.472m-5.045 3.5c.339-.38.804.092.691.497-.477.348-.977-.135-.69-.496" fill="url(#m)"/><path d="M22.854 14.546a.9.9 0 0 1 .472 1.182c-.796 1.856-1.975 3.231-3.166 3.995l-.045.172c-.173.61-.45 1.178-.723 1.521a.9.9 0 0 1-1.481-1.014 2 2 0 0 1-.268-.039c-.762-.156-1.325-.69-1.554-1.472-.19-.647-.13-1.277.191-1.793.31-.501.806-.796 1.304-.91.906-.205 2.054.163 2.508 1.267.57-.588 1.135-1.4 1.58-2.437a.9.9 0 0 1 1.182-.472m-5.045 3.5c.339-.38.804.092.691.497-.477.348-.977-.135-.69-.496" fill="url(#n)"/><path d="M22.854 14.546a.9.9 0 0 1 .472 1.182c-.796 1.856-1.975 3.231-3.166 3.995l-.045.172c-.173.61-.45 1.178-.723 1.521a.9.9 0 0 1-1.481-1.014 2 2 0 0 1-.268-.039c-.762-.156-1.325-.69-1.554-1.472-.19-.647-.13-1.277.191-1.793.31-.501.806-.796 1.304-.91.906-.205 2.054.163 2.508 1.267.57-.588 1.135-1.4 1.58-2.437a.9.9 0 0 1 1.182-.472m-5.045 3.5c.339-.38.804.092.691.497-.477.348-.977-.135-.69-.496" fill="url(#o)"/><path d="M22.854 14.546a.9.9 0 0 1 .472 1.182c-.796 1.856-1.975 3.231-3.166 3.995l-.045.172c-.173.61-.45 1.178-.723 1.521a.9.9 0 0 1-1.481-1.014 2 2 0 0 1-.268-.039c-.762-.156-1.325-.69-1.554-1.472-.19-.647-.13-1.277.191-1.793.31-.501.806-.796 1.304-.91.906-.205 2.054.163 2.508 1.267.57-.588 1.135-1.4 1.58-2.437a.9.9 0 0 1 1.182-.472m-5.045 3.5c.339-.38.804.092.691.497-.477.348-.977-.135-.69-.496" fill="url(#p)"/></g><circle cx="15.953" cy="28.951" fill="url(#q)" r=".906"/><circle cx="18.937" cy="24.92" fill="url(#r)" r=".906"/><circle cx="22.875" cy="27.92" fill="url(#s)" r=".906"/><circle cx="11.96" cy="20.938" fill="url(#y)" r=".816"/><circle cx="8.948" cy="26.899" fill="url(#z)" r=".739"/><circle cx="8.948" cy="26.899" fill="url(#A)" r=".739"/><g filter="url(#B)"><ellipse cx="9.687" cy="16.842" rx="2.519" ry="6.408" stroke="url(#C)" stroke-width=".3" transform="rotate(45 9.687 16.842)"/></g><ellipse cx="9.687" cy="16.842" fill="url(#D)" rx="2.519" ry="6.408" transform="rotate(45 9.687 16.842)"/><g filter="url(#E)"><path d="M6.281 16.965c.406-.567.887-1.145 1.433-1.71.174.355.344.748.5 1.164.431 1.153.796 2.591.847 4.091.06 1.734-.514 3.305-1.227 4.54-.711 1.233-1.598 2.199-2.268 2.74a1 1 0 0 1-1.258-1.554c.476-.385 1.203-1.16 1.793-2.185.589-1.02 1.004-2.22.962-3.472-.043-1.234-.347-2.455-.723-3.46z" fill="#24a4dc"/><path d="M6.281 16.965c.406-.567.887-1.145 1.433-1.71.174.355.344.748.5 1.164.431 1.153.796 2.591.847 4.091.06 1.734-.514 3.305-1.227 4.54-.711 1.233-1.598 2.199-2.268 2.74a1 1 0 0 1-1.258-1.554c.476-.385 1.203-1.16 1.793-2.185.589-1.02 1.004-2.22.962-3.472-.043-1.234-.347-2.455-.723-3.46z" fill="url(#F)"/><path d="M6.281 16.965c.406-.567.887-1.145 1.433-1.71.174.355.344.748.5 1.164.431 1.153.796 2.591.847 4.091.06 1.734-.514 3.305-1.227 4.54-.711 1.233-1.598 2.199-2.268 2.74a1 1 0 0 1-1.258-1.554c.476-.385 1.203-1.16 1.793-2.185.589-1.02 1.004-2.22.962-3.472-.043-1.234-.347-2.455-.723-3.46z" fill="url(#G)"/><path d="M6.281 16.965c.406-.567.887-1.145 1.433-1.71.174.355.344.748.5 1.164.431 1.153.796 2.591.847 4.091.06 1.734-.514 3.305-1.227 4.54-.711 1.233-1.598 2.199-2.268 2.74a1 1 0 0 1-1.258-1.554c.476-.385 1.203-1.16 1.793-2.185.589-1.02 1.004-2.22.962-3.472-.043-1.234-.347-2.455-.723-3.46z" fill="url(#H)"/></g><path d="m7.898 15.068.008-.008a16 16 0 0 1 1.563-1.372c.145.34.35.781.594 1.236.336.628.71 1.218 1.063 1.6.223.242.417.275 1.034.269l.08-.001c.584-.008 1.573-.02 2.404.827.842.827.814 1.78.797 2.362q-.004.112-.004.204v2.138a.5.5 0 0 0 .149.356l.631.622a1 1 0 0 1-1.404 1.425c-.69-.613-1.39-1.374-1.37-2.597l-.006-1.944c0-.094.001-.186.003-.266v-.008l.002-.228c0-.14-.006-.235-.019-.31a.53.53 0 0 0-.184-.33l-.01-.01-.01-.01c-.204-.211-.382-.237-1.04-.23h-.028c-.618.006-1.64.016-2.496-.915-.524-.568-.993-1.332-1.356-2.01a18 18 0 0 1-.401-.8" fill="#fa3f99"/><path d="m7.898 15.068.008-.008a16 16 0 0 1 1.563-1.372c.145.34.35.781.594 1.236.336.628.71 1.218 1.063 1.6.223.242.417.275 1.034.269l.08-.001c.584-.008 1.573-.02 2.404.827.842.827.814 1.78.797 2.362q-.004.112-.004.204v2.138a.5.5 0 0 0 .149.356l.631.622a1 1 0 0 1-1.404 1.425c-.69-.613-1.39-1.374-1.37-2.597l-.006-1.944c0-.094.001-.186.003-.266v-.008l.002-.228c0-.14-.006-.235-.019-.31a.53.53 0 0 0-.184-.33l-.01-.01-.01-.01c-.204-.211-.382-.237-1.04-.23h-.028c-.618.006-1.64.016-2.496-.915-.524-.568-.993-1.332-1.356-2.01a18 18 0 0 1-.401-.8" fill="url(#J)"/><path d="m7.898 15.068.008-.008a16 16 0 0 1 1.563-1.372c.145.34.35.781.594 1.236.336.628.71 1.218 1.063 1.6.223.242.417.275 1.034.269l.08-.001c.584-.008 1.573-.02 2.404.827.842.827.814 1.78.797 2.362q-.004.112-.004.204v2.138a.5.5 0 0 0 .149.356l.631.622a1 1 0 0 1-1.404 1.425c-.69-.613-1.39-1.374-1.37-2.597l-.006-1.944c0-.094.001-.186.003-.266v-.008l.002-.228c0-.14-.006-.235-.019-.31a.53.53 0 0 0-.184-.33l-.01-.01-.01-.01c-.204-.211-.382-.237-1.04-.23h-.028c-.618.006-1.64.016-2.496-.915-.524-.568-.993-1.332-1.356-2.01a18 18 0 0 1-.401-.8" fill="url(#K)"/><path d="m7.898 15.068.008-.008a16 16 0 0 1 1.563-1.372c.145.34.35.781.594 1.236.336.628.71 1.218 1.063 1.6.223.242.417.275 1.034.269l.08-.001c.584-.008 1.573-.02 2.404.827.842.827.814 1.78.797 2.362q-.004.112-.004.204v2.138a.5.5 0 0 0 .149.356l.631.622a1 1 0 0 1-1.404 1.425c-.69-.613-1.39-1.374-1.37-2.597l-.006-1.944c0-.094.001-.186.003-.266v-.008l.002-.228c0-.14-.006-.235-.019-.31a.53.53 0 0 0-.184-.33l-.01-.01-.01-.01c-.204-.211-.382-.237-1.04-.23h-.028c-.618.006-1.64.016-2.496-.915-.524-.568-.993-1.332-1.356-2.01a18 18 0 0 1-.401-.8" fill="url(#L)"/><g filter="url(#M)"><path d="M14.671 20.67v1.68c0 .387.15.76.419 1.039l.487.506" stroke="#ff5cac" stroke-linecap="round" stroke-width=".4"/></g><g filter="url(#N)"><path d="M25.376 16.67c.481.65.875 1.256 1.147 1.847-.438.71-.838 1.593-1.031 2.506-.325 1.532-.106 3.23 1.409 4.82a1 1 0 0 1-1.448 1.38c-2.035-2.135-2.358-4.535-1.918-6.614.33-1.56 1.086-2.937 1.841-3.938" fill="#2bbafe"/><path d="M25.376 16.67c.481.65.875 1.256 1.147 1.847-.438.71-.838 1.593-1.031 2.506-.325 1.532-.106 3.23 1.409 4.82a1 1 0 0 1-1.448 1.38c-2.035-2.135-2.358-4.535-1.918-6.614.33-1.56 1.086-2.937 1.841-3.938" fill="url(#O)"/></g><path d="M25.376 16.67c.481.65.875 1.256 1.147 1.847-.438.71-.838 1.593-1.031 2.506-.325 1.532-.106 3.23 1.409 4.82a1 1 0 0 1-1.448 1.38c-2.035-2.135-2.358-4.535-1.918-6.614.33-1.56 1.086-2.937 1.841-3.938" fill="url(#P)"/><g filter="url(#Q)"><path d="M25.421 19.513c-.692 1.146-1.45 4.132 1.063 6.907" stroke="url(#R)" stroke-linecap="round" stroke-width=".6"/></g><path d="m20.257 19.66-.097.063-.045.172c-.173.61-.45 1.178-.723 1.521a.9.9 0 0 1-1.481-1.014l-.03-.003c.508-.018 1.667-.296 2.302-.698z" fill="#2a82d3"/><path d="m20.257 19.66-.097.063-.045.172c-.173.61-.45 1.178-.723 1.521a.9.9 0 0 1-1.481-1.014l-.03-.003c.508-.018 1.667-.296 2.302-.698z" fill="url(#T)"/><path d="m20.257 19.66-.097.063-.045.172c-.173.61-.45 1.178-.723 1.521a.9.9 0 0 1-1.481-1.014l-.03-.003c.508-.018 1.667-.296 2.302-.698z" fill="url(#U)"/><path d="M20.092 17.455c-.454-1.104-1.602-1.472-2.508-1.266a2.06 2.06 0 0 0-1.304.909 2.05 2.05 0 0 0-.293 1.228h1.742a.35.35 0 0 1 .08-.28c.339-.38.804.092.691.497.355-.16 1.175-.659 1.592-1.088" fill="url(#V)"/><g filter="url(#W)"><path d="M18.842 19.483c-.446.085-1.31.05-1.718-.8-.515-1.072.889-2.263 2.059-1.135" stroke="url(#X)" stroke-linecap="round" stroke-width=".5"/></g><g filter="url(#Y)"><path d="M22.874 15.45c-.291.688-1.243 2.738-2.968 3.813" stroke="url(#Z)" stroke-linecap="round" stroke-width=".5"/></g></svg>