<svg fill="none" height="32" viewBox="0 0 32 32" width="32" xmlns="http://www.w3.org/2000/svg" xmlns:xlink="http://www.w3.org/1999/xlink"><filter id="c" color-interpolation-filters="sRGB" filterUnits="userSpaceOnUse" height="10.434" width="14.889" x="3.61" y="2.362"><feFlood flood-opacity="0" result="BackgroundImageFix"/><feBlend in="SourceGraphic" in2="BackgroundImageFix" result="shape"/><feColorMatrix in="SourceAlpha" result="hardAlpha" values="0 0 0 0 0 0 0 0 0 0 0 0 0 0 0 0 0 0 127 0"/><feOffset dx="-.2" dy="-.2"/><feGaussianBlur stdDeviation=".2"/><feComposite in2="hardAlpha" k2="-1" k3="1" operator="arithmetic"/><feColorMatrix values="0 0 0 0 0.317647 0 0 0 0 0.458824 0 0 0 0 0.886275 0 0 0 1 0"/><feBlend in2="shape" result="effect1_innerShadow_18_1526"/><feColorMatrix in="SourceAlpha" result="hardAlpha" values="0 0 0 0 0 0 0 0 0 0 0 0 0 0 0 0 0 0 127 0"/><feOffset dx=".2" dy=".2"/><feGaussianBlur stdDeviation=".2"/><feComposite in2="hardAlpha" k2="-1" k3="1" operator="arithmetic"/><feColorMatrix values="0 0 0 0 0.317647 0 0 0 0 0.458824 0 0 0 0 0.886275 0 0 0 1 0"/><feBlend in2="effect1_innerShadow_18_1526" result="effect2_innerShadow_18_1526"/><feColorMatrix in="SourceAlpha" result="hardAlpha" values="0 0 0 0 0 0 0 0 0 0 0 0 0 0 0 0 0 0 127 0"/><feOffset dx="-.25" dy=".25"/><feGaussianBlur stdDeviation=".25"/><feComposite in2="hardAlpha" k2="-1" k3="1" operator="arithmetic"/><feColorMatrix values="0 0 0 0 0.372549 0 0 0 0 0.607843 0 0 0 0 0.960784 0 0 0 1 0"/><feBlend in2="effect2_innerShadow_18_1526" result="effect3_innerShadow_18_1526"/></filter><filter id="h" color-interpolation-filters="sRGB" filterUnits="userSpaceOnUse" height="10.434" width="14.889" x="13.298" y="2.362"><feFlood flood-opacity="0" result="BackgroundImageFix"/><feBlend in="SourceGraphic" in2="BackgroundImageFix" result="shape"/><feColorMatrix in="SourceAlpha" result="hardAlpha" values="0 0 0 0 0 0 0 0 0 0 0 0 0 0 0 0 0 0 127 0"/><feOffset dx="-.2" dy="-.2"/><feGaussianBlur stdDeviation=".2"/><feComposite in2="hardAlpha" k2="-1" k3="1" operator="arithmetic"/><feColorMatrix values="0 0 0 0 0.317647 0 0 0 0 0.458824 0 0 0 0 0.886275 0 0 0 1 0"/><feBlend in2="shape" result="effect1_innerShadow_18_1526"/><feColorMatrix in="SourceAlpha" result="hardAlpha" values="0 0 0 0 0 0 0 0 0 0 0 0 0 0 0 0 0 0 127 0"/><feOffset dx=".2" dy=".2"/><feGaussianBlur stdDeviation=".2"/><feComposite in2="hardAlpha" k2="-1" k3="1" operator="arithmetic"/><feColorMatrix values="0 0 0 0 0.317647 0 0 0 0 0.458824 0 0 0 0 0.886275 0 0 0 1 0"/><feBlend in2="effect1_innerShadow_18_1526" result="effect2_innerShadow_18_1526"/><feColorMatrix in="SourceAlpha" result="hardAlpha" values="0 0 0 0 0 0 0 0 0 0 0 0 0 0 0 0 0 0 127 0"/><feOffset dx="-.25" dy=".25"/><feGaussianBlur stdDeviation=".25"/><feComposite in2="hardAlpha" k2="-1" k3="1" operator="arithmetic"/><feColorMatrix values="0 0 0 0 0.372549 0 0 0 0 0.607843 0 0 0 0 0.960784 0 0 0 1 0"/><feBlend in2="effect2_innerShadow_18_1526" result="effect3_innerShadow_18_1526"/></filter><filter id="r" color-interpolation-filters="sRGB" filterUnits="userSpaceOnUse" height="9" width="3.641" x="13.779" y="15.8"><feFlood flood-opacity="0" result="BackgroundImageFix"/><feBlend in="SourceGraphic" in2="BackgroundImageFix" result="shape"/><feColorMatrix in="SourceAlpha" result="hardAlpha" values="0 0 0 0 0 0 0 0 0 0 0 0 0 0 0 0 0 0 127 0"/><feOffset dx="-.3" dy=".3"/><feGaussianBlur stdDeviation=".3"/><feComposite in2="hardAlpha" k2="-1" k3="1" operator="arithmetic"/><feColorMatrix values="0 0 0 0 0.392157 0 0 0 0 0.164706 0 0 0 0 0.254902 0 0 0 1 0"/><feBlend in2="shape" result="effect1_innerShadow_18_1526"/><feColorMatrix in="SourceAlpha" result="hardAlpha" values="0 0 0 0 0 0 0 0 0 0 0 0 0 0 0 0 0 0 127 0"/><feOffset dx=".2" dy="-.2"/><feGaussianBlur stdDeviation=".2"/><feComposite in2="hardAlpha" k2="-1" k3="1" operator="arithmetic"/><feColorMatrix values="0 0 0 0 0.501961 0 0 0 0 0.333333 0 0 0 0 0.360784 0 0 0 1 0"/><feBlend in2="effect1_innerShadow_18_1526" result="effect2_innerShadow_18_1526"/></filter><linearGradient id="a"><stop offset="0" stop-color="#3669d9"/><stop offset="1" stop-color="#3669d9" stop-opacity="0"/></linearGradient><radialGradient id="d" cx="0" cy="0" gradientTransform="matrix(-2.52885 -3.84673 14.36599 -9.44423 13.103 11.842)" gradientUnits="userSpaceOnUse" r="1" xlink:href="#a"/><linearGradient id="b"><stop offset="0" stop-color="#3d89ec"/><stop offset="1" stop-color="#3d89ec" stop-opacity="0"/></linearGradient><linearGradient id="f" gradientUnits="userSpaceOnUse" x1="6.582" x2="8.377" xlink:href="#b" y1="2.023" y2="6.493"/><radialGradient id="i" cx="0" cy="0" gradientTransform="matrix(1.6486 -2.5645 5.62524 3.61622 18.744 11.842)" gradientUnits="userSpaceOnUse" r="1" xlink:href="#a"/><linearGradient id="j" gradientUnits="userSpaceOnUse" x1="25.265" x2="23.47" xlink:href="#b" y1="2.023" y2="6.493"/><linearGradient id="k" gradientUnits="userSpaceOnUse" x1="15.749" x2="16.086" y1="7.063" y2="7.25"><stop offset="0" stop-color="#1a6dd8"/><stop offset="1" stop-color="#1a6dd8" stop-opacity="0"/></linearGradient><linearGradient id="l" gradientUnits="userSpaceOnUse" x1="21.418" x2="14.413" y1="16.57" y2="23.434"><stop offset="0" stop-color="#f4c654"/><stop offset="1" stop-color="#dc9729"/></linearGradient><linearGradient id="m" gradientUnits="userSpaceOnUse" x1="12.536" x2="14.802" y1="30.668" y2="17.527"><stop offset="0" stop-color="#fa8547"/><stop offset="1" stop-color="#fa8547" stop-opacity="0"/></linearGradient><linearGradient id="n" gradientUnits="userSpaceOnUse" x1="23.963" x2="16.047" y1="18.613" y2="18.613"><stop offset="0" stop-color="#f9a842"/><stop offset="1" stop-color="#faa742"/></linearGradient><linearGradient id="o" gradientUnits="userSpaceOnUse" x1="12.541" x2="23.855" y1="19.17" y2="19.17"><stop offset="0" stop-color="#faa945"/><stop offset="1" stop-color="#ec9936"/></linearGradient><radialGradient id="p" cx="0" cy="0" gradientTransform="matrix(-10.5257 0 0 -8.96905 18.988 20.132)" gradientUnits="userSpaceOnUse" r="1"><stop offset=".893" stop-color="#f7b44d" stop-opacity="0"/><stop offset="1" stop-color="#f7b44d"/></radialGradient><radialGradient id="q" cx="0" cy="0" gradientTransform="matrix(10.128 0 0 8.88135 14.078 20.132)" gradientUnits="userSpaceOnUse" r="1"><stop offset=".879" stop-color="#d2801f" stop-opacity="0"/><stop offset=".983" stop-color="#d2801f"/></radialGradient><linearGradient id="s" gradientUnits="userSpaceOnUse" x1="16.423" x2="16.423" y1="24.5" y2="23.683"><stop offset="0" stop-color="#693b2e"/><stop offset="1" stop-color="#693b2e" stop-opacity="0"/></linearGradient><g filter="url(#c)"><path d="m14.035 3.552 4.264 7.284-6.016 1.71C8.128 11.173 5.681 8.53 4.205 5.814c-.622-1.146-.617-3.25 1.856-3.25h6.248a2 2 0 0 1 1.726.989" fill="#4686ec"/><path d="m14.035 3.552 4.264 7.284-6.016 1.71C8.128 11.173 5.681 8.53 4.205 5.814c-.622-1.146-.617-3.25 1.856-3.25h6.248a2 2 0 0 1 1.726.989" fill="url(#d)"/><path d="m14.035 3.552 4.264 7.284-6.016 1.71C8.128 11.173 5.681 8.53 4.205 5.814c-.622-1.146-.617-3.25 1.856-3.25h6.248a2 2 0 0 1 1.726.989" fill="url(#f)"/></g><g filter="url(#h)"><path d="m17.812 3.552-4.264 7.284 6.016 1.71c4.155-1.374 6.602-4.017 8.078-6.733.622-1.146.617-3.25-1.856-3.25h-6.248a2 2 0 0 0-1.726.989" fill="#4686ec"/><path d="m17.812 3.552-4.264 7.284 6.016 1.71c4.155-1.374 6.602-4.017 8.078-6.733.622-1.146.617-3.25-1.856-3.25h-6.248a2 2 0 0 0-1.726.989" fill="url(#i)"/><path d="m17.812 3.552-4.264 7.284 6.016 1.71c4.155-1.374 6.602-4.017 8.078-6.733.622-1.146.617-3.25-1.856-3.25h-6.248a2 2 0 0 0-1.726.989" fill="url(#j)"/></g><path d="m17.812 3.552-4.264 7.284 6.016 1.71c4.155-1.374 6.602-4.017 8.078-6.733.622-1.146.617-3.25-1.856-3.25h-6.248a2 2 0 0 0-1.726.989" fill="url(#k)"/><circle cx="16.047" cy="20.132" fill="url(#l)" r="10.048"/><circle cx="16.047" cy="20.132" fill="url(#m)" r="10.048"/><circle cx="16.047" cy="20.132" fill="url(#n)" r="8.688"/><circle cx="16.047" cy="20.132" fill="url(#o)" r="7.585"/><circle cx="16.047" cy="20.132" fill="url(#p)" r="7.585"/><circle cx="16.047" cy="20.132" fill="url(#q)" r="7.585"/><g filter="url(#r)"><path d="M17.22 16.8a.8.8 0 0 0-.8-.8h-1.94a.4.4 0 0 0-.4.4v1.177c0 .22.178.4.4.4h.443a.25.25 0 0 1 .25.25V24a.5.5 0 0 0 .5.5h1.047a.5.5 0 0 0 .5-.5z" fill="#6f3955"/></g><path d="M17.22 16.8a.8.8 0 0 0-.8-.8h-1.94a.4.4 0 0 0-.4.4v1.177c0 .22.178.4.4.4h.443a.25.25 0 0 1 .25.25V24a.5.5 0 0 0 .5.5h1.047a.5.5 0 0 0 .5-.5z" fill="url(#s)"/></svg>