<svg fill="none" height="32" viewBox="0 0 32 32" width="32" xmlns="http://www.w3.org/2000/svg" xmlns:xlink="http://www.w3.org/1999/xlink"><filter id="n" color-interpolation-filters="sRGB" filterUnits="userSpaceOnUse" height="13.534" width="7.943" x="7.623" y="16.125"><feFlood flood-opacity="0" result="BackgroundImageFix"/><feBlend in="SourceGraphic" in2="BackgroundImageFix" result="shape"/><feGaussianBlur result="effect1_foregroundBlur_18_6002" stdDeviation=".25"/></filter><filter id="p" color-interpolation-filters="sRGB" filterUnits="userSpaceOnUse" height="6.364" width="6.364" x="18.123" y="16"><feFlood flood-opacity="0" result="BackgroundImageFix"/><feBlend in="SourceGraphic" in2="BackgroundImageFix" result="shape"/><feColorMatrix in="SourceAlpha" result="hardAlpha" values="0 0 0 0 0 0 0 0 0 0 0 0 0 0 0 0 0 0 127 0"/><feOffset dx="-.5" dy=".5"/><feGaussianBlur stdDeviation=".25"/><feComposite in2="hardAlpha" k2="-1" k3="1" operator="arithmetic"/><feColorMatrix values="0 0 0 0 0.0470588 0 0 0 0 0.47451 0 0 0 0 0.792157 0 0 0 1 0"/><feBlend in2="shape" result="effect1_innerShadow_18_6002"/></filter><filter id="C" color-interpolation-filters="sRGB" filterUnits="userSpaceOnUse" height="11.882" width="8.193" x="8.314" y="16.016"><feFlood flood-opacity="0" result="BackgroundImageFix"/><feBlend in="SourceGraphic" in2="BackgroundImageFix" result="shape"/><feColorMatrix in="SourceAlpha" result="hardAlpha" values="0 0 0 0 0 0 0 0 0 0 0 0 0 0 0 0 0 0 127 0"/><feOffset dx=".25"/><feGaussianBlur stdDeviation=".25"/><feComposite in2="hardAlpha" k2="-1" k3="1" operator="arithmetic"/><feColorMatrix values="0 0 0 0 0.254902 0 0 0 0 0.188235 0 0 0 0 0.141176 0 0 0 1 0"/><feBlend in2="shape" result="effect1_innerShadow_18_6002"/><feColorMatrix in="SourceAlpha" result="hardAlpha" values="0 0 0 0 0 0 0 0 0 0 0 0 0 0 0 0 0 0 127 0"/><feOffset dx="-.2"/><feGaussianBlur stdDeviation=".15"/><feComposite in2="hardAlpha" k2="-1" k3="1" operator="arithmetic"/><feColorMatrix values="0 0 0 0 0.694118 0 0 0 0 0.470588 0 0 0 0 0.407843 0 0 0 1 0"/><feBlend in2="effect1_innerShadow_18_6002" result="effect2_innerShadow_18_6002"/></filter><filter id="E" color-interpolation-filters="sRGB" filterUnits="userSpaceOnUse" height="1.415" width="1.415" x="13.61" y="21.008"><feFlood flood-opacity="0" result="BackgroundImageFix"/><feBlend in="SourceGraphic" in2="BackgroundImageFix" result="shape"/><feGaussianBlur result="effect1_foregroundBlur_18_6002" stdDeviation=".075"/></filter><filter id="F" color-interpolation-filters="sRGB" filterUnits="userSpaceOnUse" height="1.126" width="1.326" x="13.799" y="21.063"><feFlood flood-opacity="0" result="BackgroundImageFix"/><feBlend in="SourceGraphic" in2="BackgroundImageFix" result="shape"/><feColorMatrix in="SourceAlpha" result="hardAlpha" values="0 0 0 0 0 0 0 0 0 0 0 0 0 0 0 0 0 0 127 0"/><feOffset dx="-.1"/><feGaussianBlur stdDeviation=".1"/><feComposite in2="hardAlpha" k2="-1" k3="1" operator="arithmetic"/><feColorMatrix values="0 0 0 0 0.694118 0 0 0 0 0.482353 0 0 0 0 0.419608 0 0 0 1 0"/><feBlend in2="shape" result="effect1_innerShadow_18_6002"/><feColorMatrix in="SourceAlpha" result="hardAlpha" values="0 0 0 0 0 0 0 0 0 0 0 0 0 0 0 0 0 0 127 0"/><feOffset dx=".1"/><feGaussianBlur stdDeviation=".1"/><feComposite in2="hardAlpha" k2="-1" k3="1" operator="arithmetic"/><feColorMatrix values="0 0 0 0 0.290196 0 0 0 0 0.184314 0 0 0 0 0.164706 0 0 0 1 0"/><feBlend in2="effect1_innerShadow_18_6002" result="effect2_innerShadow_18_6002"/></filter><filter id="I" color-interpolation-filters="sRGB" filterUnits="userSpaceOnUse" height="2.132" width="9.642" x="6.858" y="26.778"><feFlood flood-opacity="0" result="BackgroundImageFix"/><feBlend in="SourceGraphic" in2="BackgroundImageFix" result="shape"/><feGaussianBlur result="effect1_foregroundBlur_18_6002" stdDeviation=".25"/></filter><filter id="J" color-interpolation-filters="sRGB" filterUnits="userSpaceOnUse" height="2.022" width="28.438" x="2.148" y="27.91"><feFlood flood-opacity="0" result="BackgroundImageFix"/><feBlend in="SourceGraphic" in2="BackgroundImageFix" result="shape"/><feColorMatrix in="SourceAlpha" result="hardAlpha" values="0 0 0 0 0 0 0 0 0 0 0 0 0 0 0 0 0 0 127 0"/><feOffset dx=".5"/><feGaussianBlur stdDeviation=".5"/><feComposite in2="hardAlpha" k2="-1" k3="1" operator="arithmetic"/><feColorMatrix values="0 0 0 0 0.25098 0 0 0 0 0.545098 0 0 0 0 0.352941 0 0 0 1 0"/><feBlend in2="shape" result="effect1_innerShadow_18_6002"/></filter><filter id="R" color-interpolation-filters="sRGB" filterUnits="userSpaceOnUse" height="14.08" width="14.276" x="15.588" y="3.147"><feFlood flood-opacity="0" result="BackgroundImageFix"/><feBlend in="SourceGraphic" in2="BackgroundImageFix" result="shape"/><feGaussianBlur result="effect1_foregroundBlur_18_6002" stdDeviation=".3"/></filter><filter id="T" color-interpolation-filters="sRGB" filterUnits="userSpaceOnUse" height="14.08" width="14.276" x="2.812" y="3.147"><feFlood flood-opacity="0" result="BackgroundImageFix"/><feBlend in="SourceGraphic" in2="BackgroundImageFix" result="shape"/><feGaussianBlur result="effect1_foregroundBlur_18_6002" stdDeviation=".3"/></filter><radialGradient id="b" cx="0" cy="0" gradientTransform="matrix(0 4.73002 -2.5818 0 9.593 4.674)" gradientUnits="userSpaceOnUse" r="1"><stop offset="0" stop-color="#f1b379"/><stop offset="1" stop-color="#cd915f"/></radialGradient><linearGradient id="c" gradientUnits="userSpaceOnUse" x1="5.812" x2="7.506" y1="8.193" y2="8.193"><stop offset="0" stop-color="#8e694b"/><stop offset="1" stop-color="#8e694b" stop-opacity="0"/></linearGradient><linearGradient id="d" gradientUnits="userSpaceOnUse" x1="9.625" x2="8.367" y1="10.563" y2="7.882"><stop offset="0" stop-color="#9f6a42"/><stop offset="1" stop-color="#9f6a42" stop-opacity="0"/></linearGradient><linearGradient id="e" gradientUnits="userSpaceOnUse" x1="8.116" x2="8.116" y1="4.02" y2="4.194"><stop offset="0" stop-color="#d5ad80"/><stop offset="1" stop-color="#d5ad80" stop-opacity="0"/></linearGradient><radialGradient id="f" cx="0" cy="0" gradientTransform="matrix(-2.80503 0 0 -.54843 10.615 4.27)" gradientUnits="userSpaceOnUse" r="1"><stop offset="0" stop-color="#ffcb8c"/><stop offset="1" stop-color="#ffcb8c" stop-opacity="0"/></radialGradient><linearGradient id="g" gradientUnits="userSpaceOnUse" x1="5.478" x2="27.021" y1="20.777" y2="20.777"><stop offset="0" stop-color="#d7905f"/><stop offset="1" stop-color="#e8bc97"/></linearGradient><linearGradient id="h" gradientUnits="userSpaceOnUse" x1="6.083" x2="13.791" y1="29.721" y2="17.855"><stop offset="0" stop-color="#ba8951"/><stop offset="1" stop-color="#ba8951" stop-opacity="0"/></linearGradient><radialGradient id="i" cx="0" cy="0" gradientTransform="matrix(-1.84918 -3.3631 4.22093 -2.32086 20.564 28.38)" gradientUnits="userSpaceOnUse" r="1"><stop offset="0" stop-color="#beab75"/><stop offset="1" stop-color="#beab75" stop-opacity="0"/></radialGradient><linearGradient id="j" gradientUnits="userSpaceOnUse" x1="27.656" x2="26.917" y1="24.076" y2="24.076"><stop offset="0" stop-color="#ffe6b1"/><stop offset="1" stop-color="#ffe6b1" stop-opacity="0"/></linearGradient><radialGradient id="k" cx="0" cy="0" gradientTransform="matrix(0 4.71709 -1.06597 0 27.928 14.916)" gradientUnits="userSpaceOnUse" r="1"><stop offset=".35" stop-color="#9e413e"/><stop offset="1" stop-color="#9e413e" stop-opacity="0"/></radialGradient><linearGradient id="l" gradientUnits="userSpaceOnUse" x1="20.226" x2="19.077" y1="9.005" y2="10.18"><stop offset="0" stop-color="#b55852"/><stop offset="1" stop-color="#b55852" stop-opacity="0"/></linearGradient><linearGradient id="m" gradientUnits="userSpaceOnUse" x1="4.499" x2="5.285" y1="26.385" y2="26.385"><stop offset="0" stop-color="#845f3d"/><stop offset="1" stop-color="#845f3d" stop-opacity="0"/></linearGradient><linearGradient id="o" gradientUnits="userSpaceOnUse" x1="11.595" x2="11.595" y1="16.625" y2="29.159"><stop offset="0" stop-color="#805139"/><stop offset="1" stop-color="#6d4d2f"/></linearGradient><linearGradient id="q" gradientUnits="userSpaceOnUse" x1="18.623" x2="24.951" y1="22.308" y2="16"><stop offset="0" stop-color="#4cccff"/><stop offset="1" stop-color="#3a9ee6"/></linearGradient><linearGradient id="z" gradientUnits="userSpaceOnUse" x1="21.555" x2="21.555" y1="22.232" y2="21.078"><stop offset="0" stop-color="#1e9fe4"/><stop offset="1" stop-color="#1e9fe4" stop-opacity="0"/></linearGradient><linearGradient id="A" gradientUnits="userSpaceOnUse" x1="18.623" x2="19.801" y1="20.374" y2="20.374"><stop offset="0" stop-color="#48e0ff"/><stop offset="1" stop-color="#48e0ff" stop-opacity="0"/></linearGradient><linearGradient id="B" gradientUnits="userSpaceOnUse" x1="19.51" x2="20.299" y1="14.974" y2="17.341"><stop offset="0" stop-color="#43b3f2"/><stop offset="1" stop-color="#43b3f2" stop-opacity="0"/></linearGradient><linearGradient id="D" gradientUnits="userSpaceOnUse" x1="8.514" x2="16.257" y1="23.468" y2="23.423"><stop offset="0" stop-color="#70504d"/><stop offset="1" stop-color="#9b665e"/></linearGradient><linearGradient id="G" gradientUnits="userSpaceOnUse" x1="16.117" x2="16.117" y1="2.941" y2="17.91"><stop offset="0" stop-color="#ea6d2e"/><stop offset="1" stop-color="#ca222b"/></linearGradient><radialGradient id="H" cx="0" cy="0" gradientTransform="matrix(-.45975 3.57586 -6.67375 -.85805 16.956 1.93)" gradientUnits="userSpaceOnUse" r="1"><stop offset="0" stop-color="#ff853f"/><stop offset="1" stop-color="#ff853f" stop-opacity="0"/></radialGradient><linearGradient id="L" gradientUnits="userSpaceOnUse" x1="29.313" x2="1.438" y1="29.932" y2="29.932"><stop offset="0" stop-color="#3fd47b"/><stop offset="1" stop-color="#40dc7f"/></linearGradient><linearGradient id="M" gradientUnits="userSpaceOnUse" x1="16.117" x2="16.117" y1="30.468" y2="28.921"><stop offset=".107" stop-color="#3fd17b"/><stop offset="1" stop-color="#3fd17b" stop-opacity="0"/></linearGradient><radialGradient id="N" cx="0" cy="0" gradientTransform="matrix(-2.81571 1.8183 -2.98155 -4.61708 30.086 27.619)" gradientUnits="userSpaceOnUse" r="1"><stop offset="0" stop-color="#5cee92"/><stop offset="1" stop-color="#5cee92" stop-opacity="0"/></radialGradient><linearGradient id="O" gradientUnits="userSpaceOnUse" x1="7.823" x2="16.856" y1="27.91" y2="27.91"><stop offset="0" stop-color="#9fa1a3"/><stop offset="1" stop-color="#c4c1c7"/></linearGradient><linearGradient id="P" gradientUnits="userSpaceOnUse" x1="7.401" x2="8.551" y1="27.91" y2="27.91"><stop offset="0" stop-color="#59675c"/><stop offset="1" stop-color="#59675c" stop-opacity="0"/></linearGradient><linearGradient id="Q" gradientUnits="userSpaceOnUse" x1="17.208" x2="15.696" y1="27.469" y2="28.409"><stop offset="0" stop-color="#e3dadd"/><stop offset="1" stop-color="#e3dadd" stop-opacity="0"/></linearGradient><linearGradient id="a"><stop offset="0" stop-color="#ff8337"/><stop offset="1" stop-color="#f24747"/></linearGradient><linearGradient id="S" gradientUnits="userSpaceOnUse" x1="15.946" x2="29.65" xlink:href="#a" y1="3.702" y2="17.81"/><linearGradient id="U" gradientUnits="userSpaceOnUse" x1="16.731" x2="3.027" xlink:href="#a" y1="3.702" y2="17.81"/><path d="M6.092 4.428a.35.35 0 0 1 .35-.35H9.79a.35.35 0 0 1 .35.35v10.303H6.09z" fill="url(#b)"/><path d="M6.092 4.428a.35.35 0 0 1 .35-.35H9.79a.35.35 0 0 1 .35.35v10.303H6.09z" fill="url(#c)"/><path d="M6.092 4.428a.35.35 0 0 1 .35-.35H9.79a.35.35 0 0 1 .35.35v10.303H6.09z" fill="url(#d)"/><path d="M6.092 4.428a.35.35 0 0 1 .35-.35H9.79a.35.35 0 0 1 .35.35v10.303H6.09z" fill="url(#e)"/><path d="M6.092 4.428a.35.35 0 0 1 .35-.35H9.79a.35.35 0 0 1 .35.35v10.303H6.09z" fill="url(#f)"/><path d="M27.656 29.16H4.641V15.717L16.149 4.965l11.507 10.753z" fill="url(#g)"/><path d="M27.656 29.16H4.641V15.717L16.149 4.965l11.507 10.753z" fill="url(#h)"/><path d="M27.656 29.16H4.641V15.717L16.149 4.965l11.507 10.753z" fill="url(#i)"/><path d="M27.656 29.16H4.641V15.717L16.149 4.965l11.507 10.753z" fill="url(#j)"/><path d="M27.656 29.16H4.641V15.717L16.149 4.965l11.507 10.753z" fill="url(#k)"/><path d="M27.656 29.16H4.641V15.717L16.149 4.965l11.507 10.753z" fill="url(#l)"/><path d="M27.656 29.16H4.641V15.717L16.149 4.965l11.507 10.753z" fill="url(#m)"/><g filter="url(#n)"><path d="M15.066 29.16H8.123V18.151c0-.838.533-1.527 1.18-1.527h4.583c.648 0 1.18.689 1.18 1.527z" fill="url(#o)"/></g><g filter="url(#p)"><path d="M23.65 21.864h-4.19a.837.837 0 0 1-.838-.838v-4.188c0-.47.382-.838.838-.838h4.188c.47 0 .838.382.838.838v4.188c0 .47-.368.838-.838.838" fill="url(#q)"/><path d="M23.65 21.864h-4.19a.837.837 0 0 1-.838-.838v-4.188c0-.47.382-.838.838-.838h4.188c.47 0 .838.382.838.838v4.188c0 .47-.368.838-.838.838" fill="url(#z)"/></g><path d="M23.65 21.864h-4.19a.837.837 0 0 1-.838-.838v-4.188c0-.47.382-.838.838-.838h4.188c.47 0 .838.382.838.838v4.188c0 .47-.368.838-.838.838" fill="url(#A)"/><path d="M23.65 21.864h-4.19a.837.837 0 0 1-.838-.838v-4.188c0-.47.382-.838.838-.838h4.188c.47 0 .838.382.838.838v4.188c0 .47-.368.838-.838.838" fill="url(#B)"/><g filter="url(#C)"><path d="M16.257 27.898H8.514V17.464c0-.795.593-1.448 1.316-1.448h5.11c.723 0 1.317.653 1.317 1.448z" fill="url(#D)"/></g><g filter="url(#E)"><path d="M14.317 22.273a.557.557 0 1 0 0-1.115.557.557 0 0 0 0 1.115" fill="#62393d"/></g><g filter="url(#F)"><path d="M14.462 22.189a.563.563 0 1 0 0-1.126.563.563 0 0 0 0 1.126" fill="#895d56"/></g><path d="M29.738 15.847 16.998 3.295a1.214 1.214 0 0 0-1.714 0s-.014 0-.014.014L2.503 15.874a1.18 1.18 0 0 0 0 1.687 1.226 1.226 0 0 0 1.714 0L15.958 5.99a.25.25 0 0 1 .351 0l11.702 11.53c.472.472 1.241.472 1.714 0s.486-1.215.013-1.674" fill="url(#G)"/><path d="M29.738 15.847 16.998 3.295a1.214 1.214 0 0 0-1.714 0s-.014 0-.014.014L2.503 15.874a1.18 1.18 0 0 0 0 1.687 1.226 1.226 0 0 0 1.714 0L15.958 5.99a.25.25 0 0 1 .351 0l11.702 11.53c.472.472 1.241.472 1.714 0s.486-1.215.013-1.674" fill="url(#H)"/><g filter="url(#I)"><path d="M7.358 27.278H16v1.132H7.358z" fill="#68552b"/></g><g filter="url(#J)"><path d="M2.148 29.932c0-1.117.906-2.022 2.022-2.022h23.894c1.117 0 2.022.905 2.022 2.022z" fill="url(#L)"/></g><path d="M2.148 29.932c0-1.117.906-2.022 2.022-2.022h23.894c1.117 0 2.022.905 2.022 2.022z" fill="url(#M)"/><path d="M2.148 29.932c0-1.117.906-2.022 2.022-2.022h23.894c1.117 0 2.022.905 2.022 2.022z" fill="url(#N)"/><path d="M7.563 27.778a.75.75 0 0 1 .75-.75h8.013c.487 0 .882.395.882.882H7.563z" fill="url(#O)"/><path d="M7.563 27.778a.75.75 0 0 1 .75-.75h8.013c.487 0 .882.395.882.882H7.563z" fill="url(#P)"/><path d="M7.563 27.778a.75.75 0 0 1 .75-.75h8.013c.487 0 .882.395.882.882H7.563z" fill="url(#Q)"/><g filter="url(#R)"><path d="m16.339 3.897 12.776 12.58" stroke="url(#S)" stroke-linecap="round" stroke-width=".3"/></g><g filter="url(#T)"><path d="M16.339 3.897 3.562 16.477" stroke="url(#U)" stroke-linecap="round" stroke-opacity=".5" stroke-width=".3"/></g></svg>