<svg width="212" height="212" viewBox="0 0 212 212" xmlns="http://www.w3.org/2000/svg" xmlns:xlink="http://www.w3.org/1999/xlink"><defs><path d="M7.62 0a7.62 7.62 0 0 1 7.62 7.62v9.572a7.62 7.62 0 1 1-15.24 0V7.62A7.62 7.62 0 0 1 7.62 0" id="a"/></defs><g fill="none" fill-rule="evenodd"><g transform="translate(34 4)"><path d="M71.64 0h1.44c39.566 0 71.64 32.074 71.64 71.64v2.88c0 39.566-32.074 71.64-71.64 71.64h-1.44C32.074 146.16 0 114.086 0 74.52v-2.88C0 32.074 32.074 0 71.64 0" fill="#0084C2"/><path d="m120.403 17.854-75.23 63.125-4.396-5.24 74.172-62.237a72 72 0 0 1 5.454 4.352" fill="#006AAD"/><path fill="#C6775C" d="M24.12 83.563 72.333 50.04l47.547 33.523V188.64H24.12z"/><path d="M38.88 113.76c.668 0 19.779 2.396 28.8 10.08" stroke="#C6775C" stroke-width="7.56"/><path d="M39.06 124.56h65.52c21.572 0 39.06 17.488 39.06 39.06s-17.488 39.06-39.06 39.06H39.06C17.488 202.68 0 185.192 0 163.62s17.488-39.06 39.06-39.06" fill="#3D3D3D"/><path d="M41.642 131.08a13.7 13.7 0 0 0-6.16 8.496 13.74 13.74 0 0 0 1.62 10.371c6.025 9.92 16.095 15.174 28.24 15.814a13.6 13.6 0 0 0 9.88-3.517 13.7 13.7 0 0 0 4.5-9.482 13.66 13.66 0 0 0-3.472-9.86c-2.31-2.58-5.61-4.308-9.474-4.574-2.956-.155-5.117-.823-6.323-2.7a13.64 13.64 0 0 0-8.452-6.181 13.6 13.6 0 0 0-10.359 1.633Z" stroke="#3D3D3D" stroke-width="8.28" fill="#FFF" fill-rule="nonzero"/><circle fill="#C6775C" cx="72" cy="122.76" r="11.16"/><path d="M51.174 75.6c9.374 0 16.974 7.6 16.974 16.974v10.325c0 9.374-7.6 16.974-16.974 16.974s-16.974-7.6-16.974-16.974V92.574C34.2 83.2 41.8 75.6 51.174 75.6" fill="#FFF"/><path d="M55.86 85.68a7.62 7.62 0 0 1 7.62 7.62v9.572a7.62 7.62 0 0 1-15.24 0V93.3a7.62 7.62 0 0 1 7.62-7.62" fill="#3D3D3D"/><path d="M92.933 75.6c-9.374 0-16.974 7.6-16.974 16.974v10.325c0 9.374 7.6 16.974 16.974 16.974s16.974-7.6 16.974-16.974V92.574c0-9.374-7.6-16.974-16.974-16.974" fill="#FFF"/><use fill="#3D3D3D" xlink:href="#a" transform="matrix(-1 0 0 1 96.947 85.68)"/></g><path d="M115.6 85.72a6.12 6.12 0 1 1-3.396 11.212q-1.642-1.098 3.396-11.212M82.96 97.24a6.12 6.12 0 1 1 0-12.24 6.12 6.12 0 0 1 0 12.24" fill="#FFF"/></g></svg>