<svg fill="none" height="32" viewBox="0 0 32 32" width="32" xmlns="http://www.w3.org/2000/svg" xmlns:xlink="http://www.w3.org/1999/xlink"><filter id="e" color-interpolation-filters="sRGB" filterUnits="userSpaceOnUse" height="16.625" width="15.531" x="14.766" y="13.281"><feFlood flood-opacity="0" result="BackgroundImageFix"/><feBlend in="SourceGraphic" in2="BackgroundImageFix" result="shape"/><feColorMatrix in="SourceAlpha" result="hardAlpha" values="0 0 0 0 0 0 0 0 0 0 0 0 0 0 0 0 0 0 127 0"/><feOffset dx=".5" dy="-.5"/><feGaussianBlur stdDeviation=".5"/><feComposite in2="hardAlpha" k2="-1" k3="1" operator="arithmetic"/><feColorMatrix values="0 0 0 0 0.905882 0 0 0 0 0.556863 0 0 0 0 0.329412 0 0 0 1 0"/><feBlend in2="shape" result="effect1_innerShadow_18_17099"/></filter><filter id="h" color-interpolation-filters="sRGB" filterUnits="userSpaceOnUse" height="10.844" width="12.344" x="15.484" y="14.563"><feFlood flood-opacity="0" result="BackgroundImageFix"/><feBlend in="SourceGraphic" in2="BackgroundImageFix" result="shape"/><feGaussianBlur result="effect1_foregroundBlur_18_17099" stdDeviation=".5"/></filter><filter id="i" color-interpolation-filters="sRGB" filterUnits="userSpaceOnUse" height="8.141" width="10.544" x="17.016" y="15.641"><feFlood flood-opacity="0" result="BackgroundImageFix"/><feBlend in="SourceGraphic" in2="BackgroundImageFix" result="shape"/><feColorMatrix in="SourceAlpha" result="hardAlpha" values="0 0 0 0 0 0 0 0 0 0 0 0 0 0 0 0 0 0 127 0"/><feOffset dx=".2"/><feGaussianBlur stdDeviation=".2"/><feComposite in2="hardAlpha" k2="-1" k3="1" operator="arithmetic"/><feColorMatrix values="0 0 0 0 0.862745 0 0 0 0 0.321569 0 0 0 0 0.109804 0 0 0 1 0"/><feBlend in2="shape" result="effect1_innerShadow_18_17099"/></filter><filter id="j" color-interpolation-filters="sRGB" filterUnits="userSpaceOnUse" height="7.691" width="9.894" x="17.412" y="15.866"><feFlood flood-opacity="0" result="BackgroundImageFix"/><feBlend in="SourceGraphic" in2="BackgroundImageFix" result="shape"/><feGaussianBlur result="effect1_foregroundBlur_18_17099" stdDeviation=".075"/></filter><filter id="t" color-interpolation-filters="sRGB" filterUnits="userSpaceOnUse" height="19.75" width="2.25" x="17.797" y="7.531"><feFlood flood-opacity="0" result="BackgroundImageFix"/><feBlend in="SourceGraphic" in2="BackgroundImageFix" result="shape"/><feGaussianBlur result="effect1_foregroundBlur_18_17099" stdDeviation=".375"/></filter><filter id="H" color-interpolation-filters="sRGB" filterUnits="userSpaceOnUse" height="16.035" width="1.75" x="28.134" y="13.822"><feFlood flood-opacity="0" result="BackgroundImageFix"/><feBlend in="SourceGraphic" in2="BackgroundImageFix" result="shape"/><feGaussianBlur result="effect1_foregroundBlur_18_17099" stdDeviation=".25"/></filter><filter id="J" color-interpolation-filters="sRGB" filterUnits="userSpaceOnUse" height="5.875" width="2.75" x="14.109" y="6.875"><feFlood flood-opacity="0" result="BackgroundImageFix"/><feBlend in="SourceGraphic" in2="BackgroundImageFix" result="shape"/><feGaussianBlur result="effect1_foregroundBlur_18_17099" stdDeviation=".5"/></filter><filter id="K" color-interpolation-filters="sRGB" filterUnits="userSpaceOnUse" height="5.875" width="2.75" x="4.047" y="6.875"><feFlood flood-opacity="0" result="BackgroundImageFix"/><feBlend in="SourceGraphic" in2="BackgroundImageFix" result="shape"/><feGaussianBlur result="effect1_foregroundBlur_18_17099" stdDeviation=".5"/></filter><filter id="L" color-interpolation-filters="sRGB" filterUnits="userSpaceOnUse" height="9.662" width="11.094" x="5.406" y="1.681"><feFlood flood-opacity="0" result="BackgroundImageFix"/><feBlend in="SourceGraphic" in2="BackgroundImageFix" result="shape"/><feColorMatrix in="SourceAlpha" result="hardAlpha" values="0 0 0 0 0 0 0 0 0 0 0 0 0 0 0 0 0 0 127 0"/><feOffset dy="-.1"/><feGaussianBlur stdDeviation=".2"/><feComposite in2="hardAlpha" k2="-1" k3="1" operator="arithmetic"/><feColorMatrix values="0 0 0 0 0.164706 0 0 0 0 0.560784 0 0 0 0 0.886275 0 0 0 1 0"/><feBlend in2="shape" result="effect1_innerShadow_18_17099"/></filter><filter id="N" color-interpolation-filters="sRGB" filterUnits="userSpaceOnUse" height="9.313" width="11.016" x="5.531" y="1.906"><feFlood flood-opacity="0" result="BackgroundImageFix"/><feBlend in="SourceGraphic" in2="BackgroundImageFix" result="shape"/><feGaussianBlur result="effect1_foregroundBlur_18_17099" stdDeviation=".125"/></filter><linearGradient id="f" gradientUnits="userSpaceOnUse" x1="18.547" x2="23.609" y1="17.063" y2="25.813"><stop offset="0" stop-color="#fec243"/><stop offset="1" stop-color="#fdb046"/></linearGradient><radialGradient id="g" cx="0" cy="0" gradientTransform="matrix(2.15282 2.76338 -3.75883 2.92833 15.666 27.143)" gradientUnits="userSpaceOnUse" r="1"><stop offset=".225" stop-color="#d38d3c"/><stop offset="1" stop-color="#d38d3c" stop-opacity="0"/></radialGradient><linearGradient id="a"><stop offset="0" stop-color="#f38362"/><stop offset="1" stop-color="#f38362" stop-opacity="0"/></linearGradient><linearGradient id="k" gradientUnits="userSpaceOnUse" x1="26.086" x2="26.086" xlink:href="#a" y1="15.781" y2="22.047"/><linearGradient id="l" gradientUnits="userSpaceOnUse" x1="18.891" x2="25.203" xlink:href="#a" y1="22.047" y2="22.047"/><linearGradient id="m" gradientUnits="userSpaceOnUse" x1="10.953" x2="10.953" y1="7.688" y2="27.781"><stop offset="0" stop-color="#59c1fa"/><stop offset="1" stop-color="#49a8ff"/></linearGradient><linearGradient id="q" gradientUnits="userSpaceOnUse" x1="2.016" x2="3.766" y1="25.469" y2="25.469"><stop offset="0" stop-color="#419ce0"/><stop offset="1" stop-color="#449fee" stop-opacity="0"/></linearGradient><linearGradient id="r" gradientUnits="userSpaceOnUse" x1="10.609" x2="10.609" y1="28.25" y2="23.875"><stop offset="0" stop-color="#4676f8"/><stop offset="1" stop-color="#439aff" stop-opacity="0"/></linearGradient><linearGradient id="s" gradientUnits="userSpaceOnUse" x1="10.953" x2="10.953" y1="7.688" y2="9.844"><stop offset=".159" stop-color="#61c9e8"/><stop offset="1" stop-color="#61c9e8" stop-opacity="0"/></linearGradient><linearGradient id="u" gradientUnits="userSpaceOnUse" x1="653657" x2="653657" y1="8.685" y2="25.716"><stop offset="0" stop-color="#80e8ff"/><stop offset=".739" stop-color="#5bb8ff"/><stop offset="1" stop-color="#54afff"/></linearGradient><linearGradient id="b"><stop offset=".196" stop-color="#2a81cd"/><stop offset="1" stop-color="#2a81cd" stop-opacity="0"/></linearGradient><linearGradient id="w" gradientUnits="userSpaceOnUse" x1="2.016" x2="3.859" xlink:href="#b" y1="15.5" y2="15.5"/><linearGradient id="c"><stop offset="0" stop-color="#51a9f3"/><stop offset="1" stop-color="#51a9f3" stop-opacity="0"/></linearGradient><linearGradient id="y" gradientUnits="userSpaceOnUse" x1="19.891" x2="18.141" xlink:href="#c" y1="15.5" y2="15.5"/><linearGradient id="d"><stop offset="0" stop-color="#3c97ee"/><stop offset="1" stop-color="#3c97ee" stop-opacity="0"/></linearGradient><linearGradient id="A" gradientUnits="userSpaceOnUse" x1="19.891" x2="19.078" xlink:href="#d" y1="16.188" y2="16.188"/><linearGradient id="B" gradientUnits="userSpaceOnUse" x1="2.016" x2="3.859" xlink:href="#b" y1="20.156" y2="20.156"/><linearGradient id="C" gradientUnits="userSpaceOnUse" x1="19.891" x2="18.141" xlink:href="#c" y1="20.156" y2="20.156"/><linearGradient id="D" gradientUnits="userSpaceOnUse" x1="19.891" x2="19.078" xlink:href="#d" y1="20.844" y2="20.844"/><linearGradient id="E" gradientUnits="userSpaceOnUse" x1="2.016" x2="3.859" xlink:href="#b" y1="24.813" y2="24.813"/><linearGradient id="F" gradientUnits="userSpaceOnUse" x1="19.891" x2="18.141" xlink:href="#c" y1="24.813" y2="24.813"/><linearGradient id="G" gradientUnits="userSpaceOnUse" x1="19.891" x2="19.078" xlink:href="#d" y1="25.5" y2="25.5"/><linearGradient id="I" gradientUnits="userSpaceOnUse" x1="653667" x2="653667" y1="14.423" y2="27.43"><stop offset="0" stop-color="#ffd262"/><stop offset="1" stop-color="#ffb84a"/></linearGradient><radialGradient id="M" cx="0" cy="0" gradientTransform="matrix(2.46875 8.0625 -9.50433 2.91025 8.484 2.781)" gradientUnits="userSpaceOnUse" r="1"><stop offset="0" stop-color="#2c94e3"/><stop offset="1" stop-color="#2c9ceb"/></radialGradient><linearGradient id="O" gradientUnits="userSpaceOnUse" x1="12.438" x2="12.438" y1="11.344" y2="6.094"><stop offset="0" stop-color="#53a9f2"/><stop offset="1" stop-color="#53a9f2" stop-opacity="0"/></linearGradient><linearGradient id="P" gradientUnits="userSpaceOnUse" x1="15.797" x2="13.828" y1="4.188" y2="6.563"><stop offset="0" stop-color="#61b2f2"/><stop offset="1" stop-color="#61b2f2" stop-opacity="0"/></linearGradient><g filter="url(#e)"><path d="M14.766 14.781a1 1 0 0 1 1-1h13.03a1 1 0 0 1 1 1v14.125a1 1 0 0 1-1 1h-13.03a1 1 0 0 1-1-1z" fill="url(#f)"/><path d="M14.766 14.781a1 1 0 0 1 1-1h13.03a1 1 0 0 1 1 1v14.125a1 1 0 0 1-1 1h-13.03a1 1 0 0 1-1-1z" fill="url(#g)"/></g><g filter="url(#h)"><path d="M17.484 16.766a.5.5 0 1 0-1 0zm9.344-.703a.5.5 0 1 0-1 0zm-.5 2.843h-.5zm-8.844 0v-2.14h-1v2.14zm8.344-2.844v2.844h1v-2.843zm-4.172 7.344c-2.25 0-4.172-1.984-4.172-4.5h-1c0 3.007 2.31 5.5 5.172 5.5zm0 1c2.862 0 5.172-2.493 5.172-5.5h-1c0 2.516-1.922 4.5-4.172 4.5z" fill="#f19a39"/></g><g filter="url(#i)"><path d="M18.016 16.14a.5.5 0 1 0-1 0zm9.343 0a.5.5 0 0 0-1 0zm-.5 2.141h-.5zm-8.843 0v-2.14h-1v2.14zm8.343-2.14v2.14h1v-2.14zm-4.172 6.64c-2.25 0-4.171-1.984-4.171-4.5h-1c0 3.007 2.31 5.5 5.172 5.5zm0 1c2.863 0 5.172-2.493 5.172-5.5h-1c0 2.516-1.921 4.5-4.172 4.5z" fill="#e45a3b"/></g><g filter="url(#j)"><path d="M17.812 16.14a.125.125 0 0 0-.25 0zm9.344 0a.125.125 0 0 0-.25 0zm-.125 2.141h.125zm-9.219 0v-2.14h-.25v2.14zm9.094-2.14v2.14h.25v-2.14zm-4.547 7.015c-2.48 0-4.547-2.175-4.547-4.875h-.25c0 2.823 2.164 5.125 4.797 5.125zm0 .25c2.633 0 4.797-2.302 4.797-5.125h-.25c0 2.7-2.067 4.875-4.547 4.875z" fill="url(#k)"/><path d="M17.812 16.14a.125.125 0 0 0-.25 0zm9.344 0a.125.125 0 0 0-.25 0zm-.125 2.141h.125zm-9.219 0v-2.14h-.25v2.14zm9.094-2.14v2.14h.25v-2.14zm-4.547 7.015c-2.48 0-4.547-2.175-4.547-4.875h-.25c0 2.823 2.164 5.125 4.797 5.125zm0 .25c2.633 0 4.797-2.302 4.797-5.125h-.25c0 2.7-2.067 4.875-4.547 4.875z" fill="url(#l)"/></g><rect fill="url(#m)" height="20.094" rx="1" width="17.875" x="2.016" y="7.688"/><rect fill="url(#q)" height="20.094" rx="1" width="17.875" x="2.016" y="7.688"/><rect fill="url(#r)" height="20.094" rx="1" width="17.875" x="2.016" y="7.688"/><rect fill="url(#s)" height="20.094" rx="1" width="17.875" x="2.016" y="7.688"/><g filter="url(#t)"><path d="M18.922 8.656v17.5" stroke="url(#u)" stroke-linecap="round" stroke-width=".75"/></g><path d="M2.016 16.188v-2.22H19.89v2.22z" fill="#3a92ea"/><path d="M2.016 16.188v-2.22H19.89v2.22z" fill="url(#w)"/><path d="M2.016 16.188v-2.22H19.89v2.22z" fill="url(#y)"/><path d="M2.016 16.188v-2.22H19.89v2.22z" fill="url(#A)"/><path d="M2.016 20.844v-2.219H19.89v2.219z" fill="#3a91ed"/><path d="M2.016 20.844v-2.219H19.89v2.219z" fill="url(#B)"/><path d="M2.016 20.844v-2.219H19.89v2.219z" fill="url(#C)"/><path d="M2.016 20.844v-2.219H19.89v2.219z" fill="url(#D)"/><path d="M2.016 25.5v-2.219H19.89V25.5z" fill="#3a8ff0"/><path d="M2.016 25.5v-2.219H19.89V25.5z" fill="url(#E)"/><path d="M2.016 25.5v-2.219H19.89V25.5z" fill="url(#F)"/><path d="M2.016 25.5v-2.219H19.89V25.5z" fill="url(#G)"/><g filter="url(#H)"><path d="m29.01 14.697-.001 14.285" stroke="url(#I)" stroke-linecap="round" stroke-width=".75"/></g><g filter="url(#J)"><path d="M15.484 8.25v3.125" stroke="#4eb7f5" stroke-linecap="round" stroke-width=".75"/></g><g filter="url(#K)"><path d="M5.422 8.25v3.125" stroke="#4eb7f5" stroke-linecap="round" stroke-width=".75"/></g><g filter="url(#L)"><path d="M15.5 10.844a.5.5 0 0 0 1 0zm-10.094 0a.5.5 0 0 0 1 0zM15.5 7.28v3.563h1V7.28zm-9.094 3.563V7.28h-1v3.563zm4.547-8.063c2.492 0 4.547 2.021 4.547 4.5h1c0-3.043-2.515-5.5-5.547-5.5zm0-1c-3.031 0-5.547 2.457-5.547 5.5h1c0-2.479 2.056-4.5 4.547-4.5z" fill="url(#M)"/></g><g filter="url(#N)"><path d="M16.047 10.844a.125.125 0 1 0 .25 0zm-10.266 0a.125.125 0 0 0 .25 0zM16.047 7.28v3.563h.25V7.28zM6.03 10.844V7.28h-.25v3.563zm5.008-8.438c2.743 0 5.008 2.186 5.008 4.875h.25c0-2.834-2.384-5.125-5.258-5.125zm0-.25c-2.874 0-5.258 2.291-5.258 5.125h.25c0-2.689 2.265-4.875 5.008-4.875z" fill="url(#O)"/><path d="M16.047 10.844a.125.125 0 1 0 .25 0zm-10.266 0a.125.125 0 0 0 .25 0zM16.047 7.28v3.563h.25V7.28zM6.03 10.844V7.28h-.25v3.563zm5.008-8.438c2.743 0 5.008 2.186 5.008 4.875h.25c0-2.834-2.384-5.125-5.258-5.125zm0-.25c-2.874 0-5.258 2.291-5.258 5.125h.25c0-2.689 2.265-4.875 5.008-4.875z" fill="url(#P)"/></g></svg>