<svg fill="none" height="32" viewBox="0 0 32 32" width="32" xmlns="http://www.w3.org/2000/svg" xmlns:xlink="http://www.w3.org/1999/xlink"><filter id="t" color-interpolation-filters="sRGB" filterUnits="userSpaceOnUse" height="14.643" width="8.512" x="14.566" y="8.24"><feFlood flood-opacity="0" result="BackgroundImageFix"/><feBlend in="SourceGraphic" in2="BackgroundImageFix" result="shape"/><feGaussianBlur result="effect1_foregroundBlur_6994_5077" stdDeviation="1"/></filter><filter id="u" color-interpolation-filters="sRGB" filterUnits="userSpaceOnUse" height="10.102" width="10.174" x="19.62" y="6.53"><feFlood flood-opacity="0" result="BackgroundImageFix"/><feBlend in="SourceGraphic" in2="BackgroundImageFix" result="shape"/><feGaussianBlur result="effect1_foregroundBlur_6994_5077" stdDeviation=".75"/></filter><filter id="x" color-interpolation-filters="sRGB" filterUnits="userSpaceOnUse" height="10.401" width="9.865" x="7.535" y="5.987"><feFlood flood-opacity="0" result="BackgroundImageFix"/><feBlend in="SourceGraphic" in2="BackgroundImageFix" result="shape"/><feGaussianBlur result="effect1_foregroundBlur_6994_5077" stdDeviation=".75"/></filter><filter id="B" color-interpolation-filters="sRGB" filterUnits="userSpaceOnUse" height="6.494" width="5.277" x="4.676" y="15.605"><feFlood flood-opacity="0" result="BackgroundImageFix"/><feBlend in="SourceGraphic" in2="BackgroundImageFix" result="shape"/><feGaussianBlur result="effect1_foregroundBlur_6994_5077" stdDeviation=".5"/></filter><filter id="P" color-interpolation-filters="sRGB" filterUnits="userSpaceOnUse" height="5.959" width="4.944" x="8.469" y="16.482"><feFlood flood-opacity="0" result="BackgroundImageFix"/><feBlend in="SourceGraphic" in2="BackgroundImageFix" result="shape"/><feGaussianBlur result="effect1_foregroundBlur_6994_5077" stdDeviation=".125"/></filter><filter id="R" color-interpolation-filters="sRGB" filterUnits="userSpaceOnUse" height="3.994" width="1.494" x="8.335" y="25.145"><feFlood flood-opacity="0" result="BackgroundImageFix"/><feBlend in="SourceGraphic" in2="BackgroundImageFix" result="shape"/><feGaussianBlur result="effect1_foregroundBlur_6994_5077" stdDeviation=".075"/></filter><filter id="T" color-interpolation-filters="sRGB" filterUnits="userSpaceOnUse" height="5.059" width="2.013" x="6.466" y="16.432"><feFlood flood-opacity="0" result="BackgroundImageFix"/><feBlend in="SourceGraphic" in2="BackgroundImageFix" result="shape"/><feGaussianBlur result="effect1_foregroundBlur_6994_5077" stdDeviation=".15"/></filter><filter id="V" color-interpolation-filters="sRGB" filterUnits="userSpaceOnUse" height="8.319" width="7.318" x="18.942" y="7.361"><feFlood flood-opacity="0" result="BackgroundImageFix"/><feBlend in="SourceGraphic" in2="BackgroundImageFix" result="shape"/><feGaussianBlur result="effect1_foregroundBlur_6994_5077" stdDeviation=".375"/></filter><filter id="ac" color-interpolation-filters="sRGB" filterUnits="userSpaceOnUse" height="3.537" width="2.981" x="23.028" y="8.048"><feFlood flood-opacity="0" result="BackgroundImageFix"/><feBlend in="SourceGraphic" in2="BackgroundImageFix" result="shape"/><feGaussianBlur result="effect1_foregroundBlur_6994_5077" stdDeviation=".125"/></filter><filter id="ae" color-interpolation-filters="sRGB" filterUnits="userSpaceOnUse" height="2.37" width=".999" x="23" y="12.841"><feFlood flood-opacity="0" result="BackgroundImageFix"/><feBlend in="SourceGraphic" in2="BackgroundImageFix" result="shape"/><feGaussianBlur result="effect1_foregroundBlur_6994_5077" stdDeviation=".075"/></filter><filter id="ag" color-interpolation-filters="sRGB" filterUnits="userSpaceOnUse" height="3.089" width="1.419" x="21.908" y="7.998"><feFlood flood-opacity="0" result="BackgroundImageFix"/><feBlend in="SourceGraphic" in2="BackgroundImageFix" result="shape"/><feGaussianBlur result="effect1_foregroundBlur_6994_5077" stdDeviation=".15"/></filter><radialGradient id="l" cx="0" cy="0" gradientTransform="matrix(0 -32.5418 55.321 0 18.8 29.33)" gradientUnits="userSpaceOnUse" r="1"><stop offset="0" stop-color="#f12e52"/><stop offset=".596" stop-color="#ff3b79"/><stop offset="1" stop-color="#ff4ec6"/></radialGradient><radialGradient id="m" cx="0" cy="0" gradientTransform="matrix(-20.91728 15.77032 -29.53931 -39.18007 22.883 11.734)" gradientUnits="userSpaceOnUse" r="1"><stop offset=".483" stop-color="#b91d43" stop-opacity="0"/><stop offset=".834" stop-color="#b91d43"/></radialGradient><radialGradient id="n" cx="0" cy="0" gradientTransform="matrix(-21.1654 -8.2678 11.68768 -29.92024 19.859 18.152)" gradientUnits="userSpaceOnUse" r="1"><stop offset=".41" stop-color="#b91d43" stop-opacity="0"/><stop offset=".834" stop-color="#b91d43"/></radialGradient><radialGradient id="o" cx="0" cy="0" gradientTransform="rotate(90 .622 14.805)scale(19.7764)" gradientUnits="userSpaceOnUse" r="1"><stop offset=".671" stop-color="#ff7af2" stop-opacity="0"/><stop offset=".934" stop-color="#ffbce6"/></radialGradient><linearGradient id="a"><stop offset=".694" stop-color="#ff7af2" stop-opacity="0"/><stop offset=".934" stop-color="#ffbce6"/></linearGradient><linearGradient id="p" gradientUnits="userSpaceOnUse" x1="17.61" x2="25.613" xlink:href="#a" y1="16.499" y2="26.023"/><linearGradient id="q" gradientUnits="userSpaceOnUse" x1="16.618" x2="7.226" xlink:href="#a" y1="16.895" y2="27.478"/><linearGradient id="s" gradientUnits="userSpaceOnUse" x1="19.688" x2="16.881" y1="9.719" y2="6.636"><stop offset=".41" stop-color="#c12372" stop-opacity="0"/><stop offset=".834" stop-color="#b5286e"/></linearGradient><linearGradient id="b"><stop offset="0" stop-color="#ff93ba"/><stop offset="1" stop-color="#ff73a6" stop-opacity="0"/></linearGradient><radialGradient id="w" cx="0" cy="0" gradientTransform="matrix(-6.1387 -.3459 .23356 -4.14513 28.891 12.46)" gradientUnits="userSpaceOnUse" r="1" xlink:href="#b"/><radialGradient id="z" cx="0" cy="0" gradientTransform="matrix(-8.84608 -.26255 .17728 -5.97328 14.921 11.96)" gradientUnits="userSpaceOnUse" r="1" xlink:href="#b"/><linearGradient id="c"><stop offset="0" stop-color="#ffd542"/><stop offset="1" stop-color="#ffa847"/></linearGradient><linearGradient id="D" gradientUnits="userSpaceOnUse" x1="9.394" x2="6.676" xlink:href="#c" y1="16.11" y2="25.907"/><linearGradient id="d"><stop offset=".458" stop-color="#e88518" stop-opacity="0"/><stop offset="1" stop-color="#e88518"/></linearGradient><linearGradient id="F" gradientUnits="userSpaceOnUse" x1="7.519" x2="6.75" xlink:href="#d" y1="25.345" y2="29.583"/><linearGradient id="e"><stop offset=".362" stop-color="#e88518" stop-opacity="0"/><stop offset="1" stop-color="#e88518"/></linearGradient><linearGradient id="H" gradientUnits="userSpaceOnUse" x1="5.832" x2="1.597" xlink:href="#e" y1="24.376" y2="24.263"/><linearGradient id="f"><stop offset="0" stop-color="#ffff6b"/><stop offset="1" stop-color="#ffff6b" stop-opacity="0"/></linearGradient><radialGradient id="J" cx="0" cy="0" gradientTransform="matrix(-1.7153 6.96875 -19.25411 -4.73924 10.144 12.626)" gradientUnits="userSpaceOnUse" r="1" xlink:href="#f"/><linearGradient id="g"><stop offset=".782" stop-color="#e88518" stop-opacity="0"/><stop offset="1" stop-color="#e88518"/></linearGradient><linearGradient id="L" gradientUnits="userSpaceOnUse" x1="7.441" x2="6.427" xlink:href="#g" y1="22.298" y2="24.464"/><linearGradient id="h"><stop offset=".776" stop-color="#e88518" stop-opacity="0"/><stop offset="1" stop-color="#e88518"/></linearGradient><linearGradient id="N" gradientUnits="userSpaceOnUse" x1="9.615" x2="7.498" xlink:href="#h" y1="26.891" y2="27.601"/><linearGradient id="i"><stop offset="0" stop-color="#fff270" stop-opacity="0"/><stop offset=".548" stop-color="#fff270"/><stop offset="1" stop-color="#fff270" stop-opacity="0"/></linearGradient><radialGradient id="Q" cx="0" cy="0" gradientTransform="matrix(5.71875 5.35938 -4.58265 4.88994 8.129 16.782)" gradientUnits="userSpaceOnUse" r="1" xlink:href="#i"/><linearGradient id="j"><stop offset="0" stop-color="#fff270" stop-opacity="0"/><stop offset=".495" stop-color="#fff270" stop-opacity=".6"/><stop offset="1" stop-color="#fff270" stop-opacity="0"/></linearGradient><linearGradient id="S" gradientUnits="userSpaceOnUse" x1="9.066" x2="8.205" xlink:href="#j" y1="27.485" y2="26.078"/><linearGradient id="k"><stop offset="0" stop-color="#ff8a09" stop-opacity=".6"/><stop offset="1" stop-color="#ff8a09" stop-opacity="0"/></linearGradient><linearGradient id="U" gradientUnits="userSpaceOnUse" x1="8.004" x2="9.683" xlink:href="#k" y1="16.454" y2="18.896"/><linearGradient id="W" gradientUnits="userSpaceOnUse" x1="23.671" x2="22.181" xlink:href="#c" y1="7.979" y2="13.349"/><linearGradient id="X" gradientUnits="userSpaceOnUse" x1="22.643" x2="22.221" xlink:href="#d" y1="13.041" y2="15.364"/><linearGradient id="Y" gradientUnits="userSpaceOnUse" x1="21.718" x2="19.398" xlink:href="#e" y1="12.51" y2="12.448"/><radialGradient id="Z" cx="0" cy="0" gradientTransform="matrix(-.94012 3.81943 -10.55283 -2.5975 24.082 6.07)" gradientUnits="userSpaceOnUse" r="1" xlink:href="#f"/><linearGradient id="aa" gradientUnits="userSpaceOnUse" x1="22.6" x2="22.045" xlink:href="#g" y1="11.371" y2="12.558"/><linearGradient id="ab" gradientUnits="userSpaceOnUse" x1="23.792" x2="22.632" xlink:href="#h" y1="13.888" y2="14.277"/><radialGradient id="ad" cx="0" cy="0" gradientTransform="matrix(3.13433 2.93736 -2.51166 2.68007 22.977 8.348)" gradientUnits="userSpaceOnUse" r="1" xlink:href="#i"/><linearGradient id="af" gradientUnits="userSpaceOnUse" x1="23.491" x2="23.019" xlink:href="#j" y1="14.214" y2="13.443"/><linearGradient id="ah" gradientUnits="userSpaceOnUse" x1="22.909" x2="23.829" xlink:href="#k" y1="8.168" y2="9.506"/><path d="M15.084 29.551a1.73 1.73 0 0 0 1.71-.022c3.579-2.045 9.797-6.753 12.24-12.869 3.585-7.963-4.833-14.32-10.65-9.748-.607.477-1.37 1.022-1.895 1.54-.238.233-.657.257-.903.033-.69-.628-1.77-1.434-2.462-1.902C8.164 3.227-.86 7.65 2.989 17.09c1.41 4.237 8.13 10.248 12.095 12.461" fill="url(#l)"/><path d="M15.084 29.551a1.73 1.73 0 0 0 1.71-.022c3.579-2.045 9.797-6.753 12.24-12.869 3.585-7.963-4.833-14.32-10.65-9.748-.607.477-1.37 1.022-1.895 1.54-.238.233-.657.257-.903.033-.69-.628-1.77-1.434-2.462-1.902C8.164 3.227-.86 7.65 2.989 17.09c1.41 4.237 8.13 10.248 12.095 12.461" fill="url(#m)"/><path d="M15.084 29.551a1.73 1.73 0 0 0 1.71-.022c3.579-2.045 9.797-6.753 12.24-12.869 3.585-7.963-4.833-14.32-10.65-9.748-.607.477-1.37 1.022-1.895 1.54-.238.233-.657.257-.903.033-.69-.628-1.77-1.434-2.462-1.902C8.164 3.227-.86 7.65 2.989 17.09c1.41 4.237 8.13 10.248 12.095 12.461" fill="url(#n)"/><path d="M15.084 29.551a1.73 1.73 0 0 0 1.71-.022c3.579-2.045 9.797-6.753 12.24-12.869 3.585-7.963-4.833-14.32-10.65-9.748-.607.477-1.37 1.022-1.895 1.54-.238.233-.657.257-.903.033-.69-.628-1.77-1.434-2.462-1.902C8.164 3.227-.86 7.65 2.989 17.09c1.41 4.237 8.13 10.248 12.095 12.461" fill="url(#o)"/><path d="M15.084 29.551a1.73 1.73 0 0 0 1.71-.022c3.579-2.045 9.797-6.753 12.24-12.869 3.585-7.963-4.833-14.32-10.65-9.748-.607.477-1.37 1.022-1.895 1.54-.238.233-.657.257-.903.033-.69-.628-1.77-1.434-2.462-1.902C8.164 3.227-.86 7.65 2.989 17.09c1.41 4.237 8.13 10.248 12.095 12.461" fill="url(#p)"/><path d="M15.084 29.551a1.73 1.73 0 0 0 1.71-.022c3.579-2.045 9.797-6.753 12.24-12.869 3.585-7.963-4.833-14.32-10.65-9.748-.607.477-1.37 1.022-1.895 1.54-.238.233-.657.257-.903.033-.69-.628-1.77-1.434-2.462-1.902C8.164 3.227-.86 7.65 2.989 17.09c1.41 4.237 8.13 10.248 12.095 12.461" fill="url(#q)"/><path d="M16.013 8.896c.892.807 2.267.573 3.02-.366 1.144-1.425 2.766-2.893 4.915-3.03-1.825-.35-3.813.035-5.565 1.412q-.227.178-.474.366c-.485.371-1 .766-1.392 1.146-.254.246-.698.271-.96.035l-.121-.108c.149.15.352.341.577.545" fill="url(#s)"/><g filter="url(#t)"><path d="M16.566 12.119v6.19c0 2.715 2.87 3.621 3.744 1.05.747-2.2 1.065-4.57.423-6.637-.435-1.4-1.486-2.167-2.472-2.435-1.037-.282-1.695.756-1.695 1.832" fill="#fa1c56"/></g><g filter="url(#u)"><ellipse cx="24.707" cy="11.581" fill="url(#w)" rx="4.158" ry="2.861" transform="rotate(-44.19 24.707 11.581)"/></g><g filter="url(#x)"><ellipse cx="12.467" cy="11.187" fill="url(#z)" fill-opacity=".5" rx="4.158" ry="2.861" transform="rotate(-128.955 12.467 11.187)"/></g><g filter="url(#B)"><path d="m8.953 20.244-.559-3.239c-.149-.461-.484-.515-.672-.203L5.676 21.1z" fill="#a71135"/></g><path d="M6.768 20.11a1.25 1.25 0 0 1-.705.768l-2.635 1.107a.5.5 0 0 0 0 .922l2.647 1.113c.336.141.594.423.705.77l1.17 3.637a.5.5 0 0 0 .952 0l1.165-3.626a1.25 1.25 0 0 1 .703-.768l2.661-1.126a.5.5 0 0 0 0-.921l-2.649-1.121a1.25 1.25 0 0 1-.702-.766L8.9 16.456a.5.5 0 0 0-.951 0z" fill="url(#D)"/><path d="M6.768 20.11a1.25 1.25 0 0 1-.705.768l-2.635 1.107a.5.5 0 0 0 0 .922l2.647 1.113c.336.141.594.423.705.77l1.17 3.637a.5.5 0 0 0 .952 0l1.165-3.626a1.25 1.25 0 0 1 .703-.768l2.661-1.126a.5.5 0 0 0 0-.921l-2.649-1.121a1.25 1.25 0 0 1-.702-.766L8.9 16.456a.5.5 0 0 0-.951 0z" fill="url(#F)"/><path d="M6.768 20.11a1.25 1.25 0 0 1-.705.768l-2.635 1.107a.5.5 0 0 0 0 .922l2.647 1.113c.336.141.594.423.705.77l1.17 3.637a.5.5 0 0 0 .952 0l1.165-3.626a1.25 1.25 0 0 1 .703-.768l2.661-1.126a.5.5 0 0 0 0-.921l-2.649-1.121a1.25 1.25 0 0 1-.702-.766L8.9 16.456a.5.5 0 0 0-.951 0z" fill="url(#H)"/><path d="M6.768 20.11a1.25 1.25 0 0 1-.705.768l-2.635 1.107a.5.5 0 0 0 0 .922l2.647 1.113c.336.141.594.423.705.77l1.17 3.637a.5.5 0 0 0 .952 0l1.165-3.626a1.25 1.25 0 0 1 .703-.768l2.661-1.126a.5.5 0 0 0 0-.921l-2.649-1.121a1.25 1.25 0 0 1-.702-.766L8.9 16.456a.5.5 0 0 0-.951 0z" fill="url(#J)"/><path d="M6.867 24.25h-.432a1.3 1.3 0 0 0-.36-.23l-2.647-1.113a.5.5 0 0 1 0-.922l2.635-1.107a1.25 1.25 0 0 0 .705-.768l1.182-3.654a.5.5 0 0 1 .951 0l1.179 3.643c.112.345.368.625.702.766l2.649 1.12a.5.5 0 0 1 0 .922l-7.224.43c-.128.054.465.46.66.914" fill="url(#L)"/><path d="M6.867 24.25h-.432a1.3 1.3 0 0 0-.36-.23l-2.647-1.113a.5.5 0 0 1 0-.922l2.635-1.107a1.25 1.25 0 0 0 .705-.768l1.182-3.654a.5.5 0 0 1 .951 0l1.179 3.643c.112.345.368.625.702.766l2.649 1.12a.5.5 0 0 1 0 .922l-7.224.43c-.128.054.465.46.66.914" fill="url(#L)"/><path d="M6.435 24.251c.158.145.278.33.345.539l1.17 3.637a.5.5 0 0 0 .952 0l1.165-3.626a1.25 1.25 0 0 1 .358-.55z" fill="url(#N)"/><g filter="url(#P)"><path d="m8.77 16.782.966 3.24a2 2 0 0 0 1.208 1.298l2.17.821" stroke="url(#Q)" stroke-linecap="round" stroke-width=".1"/></g><g filter="url(#R)"><path d="m8.535 28.939 1.094-3.594" stroke="url(#S)" stroke-linecap="round" stroke-width=".1"/></g><g filter="url(#T)"><path d="m6.816 21.142 1.313-4.36" stroke="url(#U)" stroke-linecap="round" stroke-width=".1"/></g><g filter="url(#V)"><path d="M21.796 10.156a1.25 1.25 0 0 1-.654.636l-1.282.54a.274.274 0 0 0 0 .504l1.302.548c.283.119.512.337.644.613l.832 1.743c.082.253.44.253.522 0l.305-1.517a1.25 1.25 0 0 1 .738-.905l1.14-.482a.274.274 0 0 0 0-.505l-1.215-.513a1.25 1.25 0 0 1-.702-.766L22.86 8.3c-.082-.252-.14-.252-.222 0z" fill="#c01942"/></g><path d="M22.311 9.925a1.25 1.25 0 0 1-.705.768l-1.205.507a.274.274 0 0 0 0 .505l1.211.51c.336.14.594.422.706.769l.561 1.746c.082.253.44.253.522 0l.56-1.74a1.25 1.25 0 0 1 .702-.77l1.22-.515a.274.274 0 0 0 0-.505l-1.214-.514a1.25 1.25 0 0 1-.702-.766l-.566-1.751a.274.274 0 0 0-.522 0z" fill="url(#W)"/><path d="M22.311 9.925a1.25 1.25 0 0 1-.705.768l-1.205.507a.274.274 0 0 0 0 .505l1.211.51c.336.14.594.422.706.769l.561 1.746c.082.253.44.253.522 0l.56-1.74a1.25 1.25 0 0 1 .702-.77l1.22-.515a.274.274 0 0 0 0-.505l-1.214-.514a1.25 1.25 0 0 1-.702-.766l-.566-1.751a.274.274 0 0 0-.522 0z" fill="url(#X)"/><path d="M22.311 9.925a1.25 1.25 0 0 1-.705.768l-1.205.507a.274.274 0 0 0 0 .505l1.211.51c.336.14.594.422.706.769l.561 1.746c.082.253.44.253.522 0l.56-1.74a1.25 1.25 0 0 1 .702-.77l1.22-.515a.274.274 0 0 0 0-.505l-1.214-.514a1.25 1.25 0 0 1-.702-.766l-.566-1.751a.274.274 0 0 0-.522 0z" fill="url(#Y)"/><path d="M22.311 9.925a1.25 1.25 0 0 1-.705.768l-1.205.507a.274.274 0 0 0 0 .505l1.211.51c.336.14.594.422.706.769l.561 1.746c.082.253.44.253.522 0l.56-1.74a1.25 1.25 0 0 1 .702-.77l1.22-.515a.274.274 0 0 0 0-.505l-1.214-.514a1.25 1.25 0 0 1-.702-.766l-.566-1.751a.274.274 0 0 0-.522 0z" fill="url(#Z)"/><path d="M22.286 12.441h-.237a.7.7 0 0 0-.197-.126l-1.451-.61a.274.274 0 0 1 0-.505l1.444-.608a.7.7 0 0 0 .386-.42l.648-2.003a.274.274 0 0 1 .522 0l.646 1.996c.06.19.201.343.384.42l1.452.615a.274.274 0 0 1 0 .505l-3.96.235c-.069.03.256.253.363.501" fill="url(#aa)"/><path d="M22.286 12.441h-.237a.7.7 0 0 0-.197-.126l-1.451-.61a.274.274 0 0 1 0-.505l1.444-.608a.7.7 0 0 0 .386-.42l.648-2.003a.274.274 0 0 1 .522 0l.646 1.996c.06.19.201.343.384.42l1.452.615a.274.274 0 0 1 0 .505l-3.96.235c-.069.03.256.253.363.501" fill="url(#aa)"/><path d="M22.049 12.441q.132.122.19.296l.64 1.993c.082.253.44.253.522 0l.639-1.987a.7.7 0 0 1 .196-.302z" fill="url(#ab)"/><g filter="url(#ac)"><path d="m23.328 8.348.402 1.347a2 2 0 0 0 1.208 1.298l.771.292" stroke="url(#ad)" stroke-linecap="round" stroke-width=".1"/></g><g filter="url(#ae)"><path d="m23.2 15.01.6-1.97" stroke="url(#af)" stroke-linecap="round" stroke-width=".1"/></g><g filter="url(#ag)"><path d="m22.258 10.737.72-2.39" stroke="url(#ah)" stroke-linecap="round" stroke-width=".1"/></g></svg>